<?xml version="1.0" standalone="no"?>
<!DOCTYPE svg PUBLIC "-//W3C//DTD SVG 20010904//EN"
 "http://www.w3.org/TR/2001/REC-SVG-20010904/DTD/svg10.dtd">
<svg version="1.0" xmlns="http://www.w3.org/2000/svg"
 width="640.000000pt" height="640.000000pt" viewBox="0 0 640.000000 640.000000"
 preserveAspectRatio="xMidYMid meet">
<metadata>
Created by potrace 1.14, written by Peter Selinger 2001-2017
</metadata>
<g transform="translate(0.000000,640.000000) scale(0.100000,-0.100000)"
fill="#000000" stroke="none">
<path d="M1085 5430 c-3 -6 1 -7 9 -4 18 7 21 14 7 14 -6 0 -13 -4 -16 -10z"/>
<path d="M1143 5430 c2 -8 10 -15 17 -15 7 0 15 7 17 15 4 13 3 13 -6 0 -10
-13 -12 -13 -22 0 -9 13 -10 13 -6 0z"/>
<path d="M1220 5430 c8 -5 20 -10 25 -10 6 0 3 5 -5 10 -8 5 -19 10 -25 10 -5
0 -3 -5 5 -10z"/>
<path d="M1262 5432 c2 -8 8 -13 13 -13 6 0 14 -7 18 -15 4 -8 16 -14 25 -13
14 0 14 2 2 6 -8 4 -20 13 -27 22 -7 9 -13 12 -13 6 0 -5 -5 -3 -11 5 -7 10
-9 11 -7 2z"/>
<path d="M1370 5420 c-13 -11 -18 -20 -13 -20 6 0 16 7 24 16 12 14 14 14 26
-2 7 -10 13 -13 13 -7 0 6 -6 16 -13 22 -11 8 -20 6 -37 -9z"/>
<path d="M1490 5420 c-13 -11 -20 -20 -16 -20 4 0 19 9 33 20 14 11 21 20 16
20 -6 0 -20 -9 -33 -20z"/>
<path d="M1537 5420 c-8 -11 -16 -18 -18 -16 -2 2 -11 -3 -19 -12 -13 -14 -12
-15 5 -8 11 5 29 8 40 8 11 -1 26 7 33 18 7 11 8 20 3 20 -5 0 -11 -7 -15 -15
-3 -8 -10 -15 -16 -15 -8 0 -8 6 0 20 14 26 5 26 -13 0z"/>
<path d="M1605 5430 c-3 -6 1 -7 9 -4 18 7 21 14 7 14 -6 0 -13 -4 -16 -10z"/>
<path d="M1640 5423 c-14 -9 -28 -22 -32 -27 -5 -7 -8 -6 -8 3 0 15 -59 -57
-60 -73 0 -6 6 -2 13 8 12 16 15 14 45 -18 38 -42 40 -50 10 -41 -18 5 -19 4
-8 -4 8 -5 11 -14 6 -18 -13 -13 -45 35 -40 59 4 21 4 22 -5 3 -5 -11 -10 -16
-10 -10 -1 5 -8 -1 -17 -13 -8 -12 -20 -22 -26 -22 -6 0 -4 8 5 18 10 10 17
22 17 27 0 5 -6 0 -14 -10 -13 -18 -15 -18 -44 7 -17 14 -28 30 -24 34 4 5 -2
2 -13 -6 -11 -8 -21 -15 -23 -16 -1 0 16 -20 38 -43 22 -23 40 -38 40 -33 0 5
-14 24 -32 41 -17 17 -29 33 -26 37 3 3 22 -11 43 -31 34 -34 38 -36 54 -21
28 25 37 19 11 -9 -12 -13 -27 -22 -31 -19 -5 3 -9 0 -9 -5 0 -17 14 -13 38 9
27 25 32 25 29 -1 -1 -12 4 -23 11 -25 7 -1 8 0 2 3 -18 9 -11 25 9 18 11 -3
24 1 32 11 12 14 14 14 26 -2 7 -10 13 -14 13 -9 0 4 -11 23 -25 41 -23 31
-24 34 -8 43 10 6 13 11 6 11 -6 0 -15 -5 -18 -11 -5 -7 -14 -3 -27 11 -11 12
-17 24 -13 28 4 4 14 -2 22 -13 14 -18 15 -18 9 -1 -4 13 4 28 30 52 39 38 41
42 4 17z"/>
<path d="M1720 5425 c-7 -9 -21 -13 -31 -10 -11 4 -19 2 -19 -5 0 -6 5 -8 10
-5 20 12 9 -8 -16 -32 -15 -14 -20 -23 -12 -21 9 2 25 -8 36 -22 17 -22 23
-23 46 -12 15 7 26 8 26 2 0 -6 -4 -10 -10 -10 -5 0 -10 -5 -10 -11 0 -5 5 -7
10 -4 6 3 10 -1 10 -10 0 -10 -5 -13 -12 -9 -7 5 -8 3 -3 -5 4 -7 -2 -22 -15
-36 -23 -25 -19 -47 7 -43 9 2 18 -3 20 -10 3 -8 -1 -10 -14 -5 -17 7 -17 6 0
-11 24 -25 21 -43 -3 -21 -20 18 -21 18 -43 -4 -17 -17 -18 -21 -4 -15 9 3 17
10 17 15 0 5 5 9 11 9 6 0 9 -6 6 -14 -3 -8 4 -21 18 -30 21 -14 24 -14 29 0
3 9 1 25 -5 36 -19 35 -1 31 23 -6 25 -39 35 -45 35 -21 0 8 -2 13 -5 11 -2
-3 -16 9 -30 26 -25 30 -25 31 -6 46 16 13 17 14 1 9 -11 -4 -20 -1 -24 8 -5
13 -7 13 -18 -2 -8 -10 -16 -15 -19 -12 -4 3 2 17 13 30 18 22 20 22 26 7 4
-10 11 -18 17 -18 5 0 7 4 3 9 -3 5 3 12 12 15 11 3 9 4 -6 3 -13 -1 -26 4
-28 11 -3 8 2 10 14 6 14 -5 15 -4 4 4 -8 6 -14 27 -14 51 0 35 -2 38 -13 23
-12 -16 -14 -16 -30 0 -16 15 -16 18 0 33 9 9 16 21 16 27 0 6 -9 1 -20 -12
-24 -28 -25 -34 -4 -54 13 -14 13 -16 1 -16 -8 0 -21 10 -30 23 -14 22 -13 25
23 60 22 20 35 37 31 37 -5 0 -14 -7 -21 -15z m50 -307 c0 -11 -12 -10 -30 2
-12 7 -10 9 8 7 12 0 22 -5 22 -9z"/>
<path d="M1793 5412 c-1 -20 0 -22 5 -9 7 16 9 16 27 3 24 -18 35 -20 35 -5 0
5 -4 8 -9 4 -5 -3 -12 -1 -16 5 -3 5 -14 14 -23 19 -15 8 -18 5 -19 -17z"/>
<path d="M1840 5426 c7 -7 13 -7 20 0 6 6 3 10 -10 10 -13 0 -16 -4 -10 -10z"/>
<path d="M1975 5430 c-3 -5 -1 -10 4 -10 6 0 11 5 11 10 0 6 -2 10 -4 10 -3 0
-8 -4 -11 -10z"/>
<path d="M2090 5420 c-13 -11 -18 -20 -13 -20 6 0 16 7 24 16 12 14 14 14 26
-2 7 -10 13 -13 13 -7 0 6 -6 16 -13 22 -11 8 -20 6 -37 -9z"/>
<path d="M2210 5420 c-13 -11 -20 -20 -16 -20 4 0 19 9 33 20 14 11 21 20 16
20 -6 0 -20 -9 -33 -20z"/>
<path d="M2347 5426 c-10 -8 -14 -17 -9 -20 6 -3 13 1 16 10 6 15 8 15 24 0
10 -9 22 -16 27 -16 4 0 -2 9 -15 20 -13 11 -23 20 -24 20 -1 0 -9 -7 -19 -14z"/>
<path d="M1095 5404 c-15 -13 -23 -24 -17 -24 6 0 18 7 26 16 15 14 17 14 32
0 20 -20 29 -20 49 0 9 9 19 13 23 9 10 -10 -39 -47 -55 -40 -7 3 -19 8 -27
11 -8 3 -24 -5 -36 -18 -17 -17 -21 -19 -17 -5 8 20 -8 23 -16 3 -4 -9 2 -17
14 -21 10 -4 19 -10 19 -15 0 -4 8 -11 17 -14 15 -6 15 -4 -1 13 -15 17 -16
23 -6 36 7 8 17 15 22 15 6 0 5 -7 -2 -15 -11 -13 -11 -18 -1 -28 10 -9 12 -8
9 7 -1 10 3 21 10 23 8 3 10 -1 5 -14 -7 -17 -6 -17 11 0 24 24 43 22 21 -3
-18 -20 -18 -21 3 -43 20 -21 20 -25 6 -45 -8 -12 -11 -22 -7 -22 5 0 14 9 21
21 13 21 6 40 -23 61 -5 4 -6 11 -1 15 4 4 17 -3 29 -17 11 -14 18 -18 14 -9
-4 14 0 16 26 14 18 -2 41 -7 52 -11 17 -7 18 -6 5 8 -8 9 -18 14 -22 11 -10
-5 -10 11 -1 20 3 4 15 0 25 -9 15 -14 20 -15 34 -3 9 8 22 14 28 14 15 0 56
28 56 38 0 4 -4 6 -9 2 -5 -3 -11 0 -14 7 -2 7 -3 5 -2 -4 3 -20 -20 -43 -34
-34 -5 4 -17 -1 -26 -10 -9 -9 -19 -14 -22 -10 -4 3 -1 12 5 18 7 7 12 17 12
23 0 5 -5 2 -11 -7 -5 -10 -15 -18 -21 -18 -9 0 -9 3 0 12 9 9 5 16 -18 30
-39 23 -45 23 -22 0 9 -11 20 -17 25 -15 13 7 7 -12 -12 -34 -11 -13 -25 -23
-33 -23 -10 0 -9 3 2 11 12 9 11 10 -5 4 -33 -11 -37 -11 -43 4 -2 8 0 11 5 8
12 -8 39 10 30 20 -5 4 -12 1 -16 -6 -5 -8 -11 -9 -15 -3 -3 5 1 15 9 22 12
10 18 10 30 0 8 -7 12 -16 9 -21 -3 -5 0 -9 5 -9 20 0 12 19 -20 50 l-31 29
-19 -22 -19 -22 -18 22 -19 21 -28 -24z"/>
<path d="M1320 5420 c-13 -8 -12 -10 3 -10 9 0 17 5 17 10 0 12 -1 12 -20 0z"/>
<path d="M1440 5420 c-13 -8 -12 -10 3 -10 9 0 17 5 17 10 0 12 -1 12 -20 0z"/>
<path d="M1755 5419 c-4 -6 -4 -13 -1 -16 3 -4 -1 -17 -9 -30 -9 -13 -11 -23
-6 -23 5 0 13 9 16 20 3 11 11 20 16 20 5 0 9 5 9 11 0 5 -4 7 -10 4 -5 -3
-10 -2 -10 4 0 5 6 12 13 14 9 4 9 6 0 6 -6 1 -15 -4 -18 -10z"/>
<path d="M1875 5419 c-11 -16 -1 -19 13 -3 7 8 8 14 3 14 -5 0 -13 -5 -16 -11z"/>
<path d="M1923 5423 c-7 -3 -13 -9 -13 -14 0 -4 7 -6 15 -2 10 3 15 1 13 -7
-2 -7 4 -15 12 -17 12 -4 12 -3 2 5 -8 5 -13 12 -12 16 3 14 -5 23 -17 19z"/>
<path d="M2010 5413 c6 -13 18 -23 28 -22 14 0 14 2 2 6 -8 4 -21 13 -28 22
-11 14 -11 13 -2 -6z"/>
<path d="M2040 5420 c-13 -8 -12 -10 3 -10 9 0 17 5 17 10 0 12 -1 12 -20 0z"/>
<path d="M2160 5420 c-13 -8 -12 -10 3 -10 9 0 17 5 17 10 0 12 -1 12 -20 0z"/>
<path d="M2235 5403 c-24 -20 -26 -24 -9 -19 14 4 26 0 38 -12 16 -18 15 -21
-4 -43 l-20 -24 -20 24 c-11 13 -18 26 -15 29 3 3 12 -3 19 -14 11 -14 17 -16
26 -7 18 17 3 32 -28 30 -33 -3 -34 -14 -5 -51 l22 -28 25 29 c31 34 31 34 6
61 -26 28 -25 35 3 27 12 -3 18 -3 12 2 -5 5 -12 11 -15 15 -3 4 -19 -4 -35
-19z m15 -53 c0 -5 -4 -10 -10 -10 -5 0 -10 5 -10 10 0 6 5 10 10 10 6 0 10
-4 10 -10z"/>
<path d="M2305 5415 c4 -11 7 -27 7 -36 0 -9 10 -22 24 -29 13 -8 24 -20 24
-29 0 -14 -2 -14 -10 -1 -13 21 -12 3 1 -22 9 -17 8 -24 -5 -34 -11 -8 -13
-14 -7 -19 6 -3 11 -2 11 3 0 4 10 19 22 32 16 17 17 22 6 18 -13 -6 -15 0
-12 32 2 25 -2 42 -11 50 -9 8 -15 8 -15 2 0 -6 6 -12 13 -15 6 -2 9 -8 5 -12
-10 -10 -40 14 -32 26 3 5 -2 19 -12 31 -14 20 -15 20 -9 3z"/>
<path d="M2420 5418 c0 -4 7 -8 15 -8 8 0 15 4 15 8 0 5 -7 9 -15 9 -8 0 -15
-4 -15 -9z"/>
<path d="M2460 5412 c0 -6 -8 -13 -17 -15 -16 -4 -16 -5 -1 -6 18 -1 34 16 24
26 -3 4 -6 1 -6 -5z"/>
<path d="M1027 5397 c2 -4 9 -5 14 -2 5 4 9 2 9 -3 0 -16 -13 -22 -27 -11 -9
9 -13 8 -13 0 0 -6 5 -11 11 -11 5 0 7 -4 4 -10 -3 -5 -1 -10 4 -10 6 0 11 4
11 8 0 5 9 18 19 29 19 21 19 21 -9 19 -15 0 -26 -4 -23 -9z"/>
<path d="M1651 5397 c-1 -10 -5 -16 -10 -13 -5 3 -12 -1 -15 -10 -10 -25 -7
-26 15 -5 12 11 19 25 16 33 -4 8 -6 7 -6 -5z"/>
<path d="M1890 5395 c0 -8 4 -15 10 -15 5 0 7 7 4 15 -4 8 -8 15 -10 15 -2 0
-4 -7 -4 -15z"/>
<path d="M1968 5403 c6 -3 10 -9 6 -14 -5 -8 9 -13 29 -10 11 2 8 -14 -5 -28
-11 -10 -10 -11 4 -6 34 13 29 42 -6 36 -5 -1 -6 4 -3 12 3 8 -3 13 -17 14
-11 0 -15 -1 -8 -4z"/>
<path d="M2113 5360 c0 -37 2 -48 8 -35 4 11 8 16 8 11 1 -6 7 -2 14 9 9 11
19 15 26 10 10 -6 11 -3 2 12 -6 11 -7 23 -4 27 3 3 1 6 -6 6 -7 0 -11 -6 -8
-14 7 -17 -20 -43 -31 -31 -4 4 -1 10 6 12 6 3 12 9 12 14 0 6 -4 8 -9 4 -5
-3 -11 3 -13 12 -3 10 -5 -7 -5 -37z"/>
<path d="M2360 5404 c0 -4 10 -18 22 -31 12 -13 16 -23 10 -23 -7 0 -12 -5
-12 -12 0 -9 3 -9 11 -1 9 9 15 8 25 -2 20 -19 17 -26 -8 -22 -13 2 -17 2 -10
0 18 -6 15 -14 -15 -45 -25 -26 -25 -29 -10 -46 10 -10 14 -22 10 -25 -10 -10
-25 -8 -19 2 3 5 -1 14 -9 21 -10 9 -15 9 -15 1 0 -6 4 -11 9 -11 5 0 8 -15 6
-32 -2 -18 -1 -25 1 -15 3 9 10 15 15 12 5 -4 9 -1 9 5 0 6 10 15 23 20 12 5
16 9 9 9 -14 1 -42 25 -42 36 0 3 9 3 20 0 12 -4 20 -2 20 5 0 6 -4 8 -10 5
-18 -11 -10 5 15 33 14 15 25 29 25 32 -1 9 -80 92 -80 84z"/>
<path d="M1432 5386 c3 -17 -60 -68 -73 -60 -5 3 -9 0 -9 -5 0 -18 26 -12 45
9 10 11 26 22 36 25 17 6 23 45 6 45 -4 0 -7 -7 -5 -14z"/>
<path d="M1810 5390 c0 -5 5 -10 11 -10 5 0 7 5 4 10 -3 6 -8 10 -11 10 -2 0
-4 -4 -4 -10z"/>
<path d="M1340 5382 c0 -4 9 -8 20 -9 11 -1 20 2 20 5 0 4 -9 8 -20 9 -11 1
-20 -2 -20 -5z"/>
<path d="M1460 5379 c0 -5 5 -7 10 -4 6 3 10 8 10 11 0 2 -4 4 -10 4 -5 0 -10
-5 -10 -11z"/>
<path d="M1862 5383 c-6 -2 -10 -9 -7 -13 3 -5 1 -11 -5 -15 -5 -3 -10 -1 -10
4 0 6 -5 11 -12 11 -9 0 -9 -3 0 -12 7 -7 12 -17 12 -22 -1 -6 -10 0 -22 14
-20 24 -20 24 -14 3 8 -24 -9 -33 -16 -10 -3 6 -5 -2 -5 -20 l0 -31 18 21 c9
12 20 19 24 15 4 -4 0 -14 -9 -23 -20 -21 -20 -29 0 -46 14 -12 14 -14 -2 -26
-10 -7 -14 -13 -9 -13 4 0 23 11 41 25 31 23 34 24 43 8 6 -10 11 -13 11 -7 0
6 -6 17 -14 23 -11 9 -18 8 -30 -5 -10 -9 -19 -14 -22 -12 -8 9 8 38 17 32 5
-3 6 1 4 9 -3 7 3 22 15 32 11 10 20 25 20 34 0 9 -9 1 -21 -18 -11 -18 -23
-31 -26 -28 -3 3 5 22 17 41 12 20 20 36 18 35 -2 0 -9 -3 -16 -6z m-28 -97
c-6 -16 -24 -23 -24 -8 0 10 22 33 27 28 2 -2 1 -11 -3 -20z"/>
<path d="M2060 5379 c0 -5 5 -7 10 -4 6 3 10 8 10 11 0 2 -4 4 -10 4 -5 0 -10
-5 -10 -11z"/>
<path d="M2066 5353 c-28 -33 -28 -34 -10 -56 11 -12 23 -25 29 -29 5 -4 6
-10 2 -15 -5 -4 -22 8 -39 27 -18 20 -28 27 -24 16 7 -20 -20 -60 -35 -50 -5
3 -9 0 -9 -5 0 -14 13 -14 28 1 6 6 15 8 19 4 4 -4 1 -12 -7 -17 -13 -9 -13
-10 0 -6 8 2 14 14 13 26 -2 11 2 21 7 21 6 0 10 -4 10 -9 0 -18 33 -21 51 -6
16 15 18 15 28 -2 6 -10 11 -13 11 -7 0 5 -5 15 -12 22 -9 9 -9 15 0 24 7 7
12 16 12 22 0 5 -6 2 -13 -8 -12 -16 -14 -16 -26 -2 -8 10 -21 14 -32 11 -22
-7 -24 1 -5 20 10 10 16 11 25 2 8 -8 11 -8 11 1 0 7 -5 12 -11 12 -8 0 -7 5
1 15 7 9 11 17 9 19 -2 1 -17 -12 -33 -31z m31 -58 c8 -9 13 -19 9 -22 -7 -7
-36 16 -36 28 0 13 10 11 27 -6z"/>
<path d="M2180 5379 c0 -5 5 -7 10 -4 6 3 10 8 10 11 0 2 -4 4 -10 4 -5 0 -10
-5 -10 -11z"/>
<path d="M2285 5380 c3 -5 8 -10 11 -10 2 0 4 5 4 10 0 6 -5 10 -11 10 -5 0
-7 -4 -4 -10z"/>
<path d="M2405 5380 c3 -5 8 -10 11 -10 2 0 4 5 4 10 0 6 -5 10 -11 10 -5 0
-7 -4 -4 -10z"/>
<path d="M2462 5381 c-11 -6 -10 -11 3 -25 21 -20 32 -21 15 -1 -7 9 -9 19 -5
23 4 4 10 2 12 -4 2 -6 10 -20 18 -30 11 -15 16 -17 26 -6 11 10 9 15 -6 30
-11 9 -14 10 -7 3 14 -17 16 -31 4 -31 -5 0 -14 11 -20 25 -12 27 -19 30 -40
16z"/>
<path d="M1520 5370 c-11 -7 -11 -10 -2 -10 8 0 6 -8 -8 -22 -11 -12 -18 -24
-15 -26 7 -8 45 39 40 48 -3 5 1 11 7 13 7 3 9 6 3 6 -5 0 -17 -4 -25 -9z"/>
<path d="M1775 5370 c3 -5 8 -10 11 -10 2 0 4 5 4 10 0 6 -5 10 -11 10 -5 0
-7 -4 -4 -10z"/>
<path d="M1913 5373 c-7 -2 -13 -9 -13 -15 0 -7 5 -6 14 1 11 10 17 7 29 -10
9 -11 20 -18 26 -14 14 8 14 35 1 35 -5 0 -7 -8 -3 -17 5 -14 1 -13 -16 5 -12
12 -23 22 -24 21 -1 0 -8 -3 -14 -6z"/>
<path d="M2036 5365 c-3 -8 -1 -15 4 -15 6 0 10 7 10 15 0 8 -2 15 -4 15 -2 0
-6 -7 -10 -15z"/>
<path d="M2430 5365 c0 -8 4 -15 10 -15 5 0 7 7 4 15 -4 8 -8 15 -10 15 -2 0
-4 -7 -4 -15z"/>
<path d="M980 5347 c-12 -21 -12 -21 6 -7 10 8 20 15 22 16 2 1 -1 4 -5 7 -5
3 -15 -4 -23 -16z"/>
<path d="M1481 5363 c3 -20 -2 -26 -11 -13 -6 9 -10 10 -10 3 0 -19 21 -27 31
-12 12 19 11 29 -1 29 -5 0 -9 -3 -9 -7z"/>
<path d="M1905 5336 c-17 -13 -16 -15 18 -47 20 -19 37 -40 37 -47 0 -10 -4
-10 -16 2 -8 9 -20 16 -26 16 -6 0 0 -9 13 -19 23 -19 24 -20 5 -38 -18 -17
-18 -17 -12 4 4 12 2 24 -5 29 -9 5 -10 2 -6 -9 3 -9 -3 -27 -15 -42 -19 -25
-19 -27 -3 -46 10 -10 15 -22 10 -27 -4 -4 -10 -1 -12 6 -3 6 -9 12 -15 12 -6
0 -5 -6 2 -15 17 -21 5 -31 -14 -12 -8 8 -12 17 -9 21 4 3 1 6 -5 6 -18 0 -14
-15 8 -35 19 -17 21 -17 40 0 24 22 25 29 4 50 -9 9 -13 19 -9 23 4 4 16 -4
28 -18 11 -14 18 -18 14 -9 -4 13 1 16 25 14 16 -1 33 -6 37 -12 3 -5 14 -1
24 9 9 10 13 18 8 18 -6 0 -13 -5 -16 -10 -4 -6 -11 -8 -16 -5 -13 9 -11 25 3
23 6 -2 14 5 16 15 2 9 -1 17 -7 17 -6 0 -7 -7 -4 -17 4 -11 3 -14 -5 -9 -7 4
-15 1 -18 -8 -3 -9 -14 -16 -23 -16 -14 0 -14 2 -1 11 12 9 11 10 -5 4 -33
-11 -37 -11 -42 3 -3 7 -1 12 4 11 22 -4 32 3 43 31 10 24 10 33 -1 46 -11 14
-10 19 10 35 13 11 27 17 30 13 3 -3 -3 -12 -13 -20 -15 -10 -17 -17 -9 -25
16 -16 31 -4 31 26 0 36 -16 41 -44 14 l-24 -23 -22 22 c-19 18 -20 22 -6 22
9 0 18 -6 21 -12 2 -7 7 -11 10 -8 3 3 0 13 -7 22 -11 15 -15 16 -31 4z m95
-56 c0 -5 -5 -10 -11 -10 -5 0 -7 5 -4 10 3 6 8 10 11 10 2 0 4 -4 4 -10z"/>
<path d="M2300 5341 c0 -5 -14 -24 -30 -42 l-30 -34 -18 21 c-16 19 -21 20
-37 8 -17 -13 -17 -14 6 -34 l24 -20 -24 -20 c-12 -11 -28 -17 -34 -13 -5 3
-7 1 -3 -5 3 -5 0 -12 -6 -15 -7 -2 -10 -7 -7 -11 5 -5 18 3 67 44 16 14 15
25 -4 45 -9 9 -13 19 -9 23 4 4 15 -3 25 -16 l19 -23 29 33 c26 28 32 30 46
19 9 -7 13 -17 10 -22 -3 -5 0 -9 5 -9 18 0 13 18 -11 41 -18 17 -19 21 -5 16
21 -8 23 8 2 17 -8 3 -15 2 -15 -3z"/>
<path d="M1010 5329 c0 -5 5 -7 10 -4 6 3 10 8 10 11 0 2 -4 4 -10 4 -5 0 -10
-5 -10 -11z"/>
<path d="M1655 5331 c3 -5 -3 -12 -12 -15 -11 -3 -9 -4 6 -3 14 1 28 -6 35
-18 12 -20 39 -46 44 -40 2 1 -11 18 -27 36 -17 18 -31 37 -31 41 0 5 -5 8
-11 8 -5 0 -8 -4 -4 -9z"/>
<path d="M2015 5330 c3 -5 8 -10 11 -10 2 0 4 5 4 10 0 6 -5 10 -11 10 -5 0
-7 -4 -4 -10z"/>
<path d="M2150 5330 c0 -5 8 -7 18 -3 13 5 12 1 -5 -16 -25 -23 -30 -41 -12
-41 5 0 8 4 4 9 -3 5 4 16 16 25 12 8 18 19 14 25 -8 14 -35 14 -35 1z"/>
<path d="M2450 5329 c0 -5 5 -7 10 -4 6 3 10 8 10 11 0 2 -4 4 -10 4 -5 0 -10
-5 -10 -11z"/>
<path d="M983 5315 c-10 -10 -10 -16 -1 -21 7 -5 5 -11 -7 -21 -11 -7 -14 -13
-8 -13 7 0 15 5 18 10 3 6 10 10 16 10 5 0 4 -9 -3 -19 -7 -11 -17 -17 -23
-13 -13 8 15 -29 35 -45 8 -7 12 -13 8 -13 -10 0 38 -50 48 -50 5 0 4 4 -1 8
-6 4 -21 22 -34 40 -18 26 -20 36 -11 47 7 8 16 12 21 9 5 -3 9 0 9 5 0 16
-16 13 -35 -5 -9 -9 -18 -14 -22 -11 -6 7 46 57 59 57 5 0 6 -5 3 -10 -3 -6 1
-13 9 -16 9 -3 16 -14 16 -23 0 -14 -2 -14 -10 -1 -5 8 -10 11 -10 5 0 -5 4
-16 9 -24 7 -11 10 -8 16 9 5 17 2 27 -11 37 -10 7 -14 13 -9 13 5 0 4 5 -3
12 -9 9 -15 9 -24 0 -20 -20 -32 -13 -13 8 10 11 22 17 26 14 5 -3 9 0 9 5 0
17 -14 13 -38 -9 -12 -11 -24 -20 -27 -20 -4 0 -3 9 0 20 7 23 5 25 -12 5z"/>
<path d="M2475 5320 c-3 -5 -4 -14 -1 -19 3 -5 -4 -21 -15 -35 -20 -25 -20
-28 -5 -45 9 -10 13 -21 9 -24 -3 -4 2 -16 12 -27 10 -11 16 -23 13 -26 -8 -8
-49 47 -42 57 3 5 0 9 -5 9 -18 0 -12 -24 16 -54 22 -26 27 -28 37 -15 6 9 18
19 26 22 9 4 6 6 -7 3 -24 -4 -49 17 -39 33 4 5 -1 17 -10 26 -9 9 -14 19 -10
22 3 4 12 1 18 -5 7 -7 17 -12 23 -12 5 0 2 5 -7 11 -10 5 -18 15 -18 21 0 7
4 7 14 -1 11 -9 15 -8 20 5 4 10 -1 22 -11 29 -10 8 -15 16 -12 19 3 4 18 -3
33 -15 24 -19 26 -23 12 -31 -9 -5 -16 -17 -15 -26 0 -14 2 -14 6 -2 4 8 13
20 22 26 13 10 11 15 -15 37 -32 29 -40 32 -49 17z m20 -40 c3 -5 1 -10 -4
-10 -6 0 -11 5 -11 10 0 6 2 10 4 10 3 0 8 -4 11 -10z"/>
<path d="M2534 5319 c-4 -7 -3 -9 4 -5 5 3 13 0 15 -6 4 -9 6 -10 6 -1 1 17
-16 25 -25 12z"/>
<path d="M1070 5315 c0 -2 8 -18 18 -34 13 -22 22 -27 32 -20 12 7 12 9 -3 9
-10 0 -16 3 -14 8 2 4 -4 15 -15 25 -10 9 -18 15 -18 12z"/>
<path d="M1135 5310 c-3 -5 -1 -10 4 -10 6 0 11 5 11 10 0 6 -2 10 -4 10 -3 0
-8 -4 -11 -10z"/>
<path d="M1325 5300 c3 -5 8 -10 11 -10 2 0 4 5 4 10 0 6 -5 10 -11 10 -5 0
-7 -4 -4 -10z"/>
<path d="M1381 5301 c-9 -6 -10 -11 -2 -15 8 -5 7 -12 -3 -22 -20 -20 -27 -18
-23 9 2 12 2 16 0 10 -5 -16 -19 -17 -28 -3 -3 6 -11 10 -17 10 -6 0 2 -10 17
-22 26 -20 27 -22 9 -35 -10 -7 -14 -13 -9 -13 4 0 23 11 41 25 31 23 34 24
43 8 6 -10 11 -13 11 -7 0 6 -7 17 -15 24 -8 7 -15 17 -15 23 0 6 19 -8 41
-31 36 -36 40 -44 28 -58 -12 -15 -15 -14 -31 6 -10 12 -18 18 -19 14 0 -5 -5
0 -10 11 -7 16 -8 13 -5 -12 2 -18 0 -33 -5 -33 -5 0 -9 -5 -9 -11 0 -8 5 -8
15 1 8 7 12 16 9 21 -6 10 9 12 19 2 4 -3 0 -15 -10 -25 -15 -17 -15 -19 1
-37 13 -14 14 -21 6 -26 -9 -6 -9 -10 1 -16 20 -12 26 -11 33 7 5 14 4 15 -8
5 -11 -9 -13 -7 -13 14 0 24 11 34 20 18 2 -5 3 -3 1 3 -3 16 56 10 66 -5 5
-10 9 -9 13 3 4 9 14 16 23 16 13 0 11 -6 -10 -25 -15 -14 -24 -25 -20 -25 4
0 18 10 31 22 22 21 23 21 43 3 17 -15 20 -16 15 -3 -9 24 -62 43 -78 29 -8
-6 -17 -8 -20 -4 -11 11 -8 23 5 21 6 -2 14 5 16 15 2 9 -1 17 -7 17 -6 0 -7
-7 -4 -17 4 -11 3 -14 -5 -9 -7 4 -15 1 -18 -8 -3 -9 -14 -16 -23 -16 -14 0
-14 2 -1 10 24 16 2 11 -31 -6 -17 -8 -33 -13 -36 -10 -7 7 18 30 37 34 7 2
20 11 28 20 13 16 13 16 8 0 -7 -22 10 -24 18 -3 3 8 1 15 -4 15 -6 0 -31 20
-57 45 -25 25 -46 45 -47 45 -1 0 -7 -4 -15 -9z"/>
<path d="M1580 5300 c0 -5 5 -10 11 -10 5 0 7 5 4 10 -3 6 -8 10 -11 10 -2 0
-4 -4 -4 -10z"/>
<path d="M1870 5303 c0 -10 40 -36 46 -30 3 2 -7 12 -21 21 -14 9 -25 13 -25
9z"/>
<path d="M2438 5288 c-25 -31 -23 -46 2 -18 11 13 20 27 20 32 0 12 -3 10 -22
-14z"/>
<path d="M1228 5289 c-4 -11 1 -16 21 -16 14 0 35 -4 46 -9 17 -7 18 -6 5 8
-8 9 -18 14 -22 11 -5 -2 -8 1 -8 6 0 6 -5 11 -11 11 -5 0 -7 -4 -4 -10 3 -5
2 -10 -4 -10 -5 0 -11 5 -13 12 -3 8 -6 7 -10 -3z"/>
<path d="M1660 5293 c5 -2 8 -9 4 -14 -3 -5 0 -9 6 -9 15 0 7 23 -8 26 -7 1
-8 0 -2 -3z"/>
<path d="M1715 5290 c3 -5 8 -10 11 -10 2 0 4 5 4 10 0 6 -5 10 -11 10 -5 0
-7 -4 -4 -10z"/>
<path d="M1141 5266 c17 -17 21 -18 29 -6 12 19 5 28 -24 28 -24 0 -24 -1 -5
-22z m29 10 c0 -3 -4 -8 -10 -11 -5 -3 -10 -1 -10 4 0 6 5 11 10 11 6 0 10 -2
10 -4z"/>
<path d="M2278 5268 c-22 -28 -22 -30 2 -58 11 -13 20 -20 20 -16 0 4 7 0 16
-9 9 -9 19 -13 23 -9 3 4 0 9 -7 11 -6 3 -9 10 -6 15 4 6 2 8 -3 5 -6 -4 -22
2 -34 13 l-24 20 23 19 c22 20 28 31 15 31 -5 0 -16 -10 -25 -22z"/>
<path d="M1213 5249 c-6 -6 -9 -17 -7 -24 8 -19 -29 -14 -53 7 -17 16 -25 18
-40 8 -15 -10 -15 -11 -1 -6 9 3 27 -4 40 -15 l23 -19 -24 -20 c-12 -11 -27
-17 -32 -14 -5 3 -9 0 -9 -5 0 -18 26 -12 45 9 10 12 24 19 31 16 7 -3 11 0 8
7 -2 7 4 13 16 14 24 2 25 -3 5 -24 -12 -12 -13 -18 -4 -29 6 -8 17 -14 23
-14 6 0 3 5 -7 11 -18 10 -18 12 -1 30 16 18 16 20 0 38 -17 18 -17 20 1 30
10 6 13 11 8 11 -6 0 -16 -5 -22 -11z"/>
<path d="M1255 5251 c3 -5 -3 -12 -12 -15 -10 -2 -3 -3 15 -1 17 2 32 -1 32
-6 0 -5 5 -9 11 -9 5 0 8 4 4 9 -3 5 3 12 12 15 10 2 3 3 -14 1 -18 -2 -33 1
-33 6 0 5 -5 9 -11 9 -5 0 -8 -4 -4 -9z"/>
<path d="M1686 5244 c16 -13 16 -15 2 -10 -10 3 -18 1 -18 -4 0 -14 27 -13 36
1 3 6 0 15 -7 20 -24 15 -34 10 -13 -7z"/>
<path d="M2166 5244 c16 -13 16 -15 2 -10 -10 3 -18 1 -18 -4 0 -14 27 -13 36
1 3 6 0 15 -7 20 -24 15 -34 10 -13 -7z"/>
<path d="M2295 5250 c-3 -5 -3 -14 0 -20 8 -13 35 -13 35 0 0 5 -7 7 -15 4 -8
-4 -15 -2 -15 4 0 6 6 13 13 15 9 4 9 6 0 6 -6 1 -15 -3 -18 -9z"/>
<path d="M1635 5222 c2 -22 0 -32 -8 -29 -7 2 -11 13 -10 23 1 10 0 13 -3 7
-3 -7 -13 -13 -22 -13 -10 0 -3 -8 16 -16 17 -9 32 -24 32 -33 0 -14 -2 -14
-10 -1 -5 8 -10 11 -10 5 0 -5 4 -16 9 -24 7 -11 10 -10 15 5 3 11 4 29 1 42
-2 12 0 22 6 22 5 0 9 5 9 11 0 5 -4 8 -9 4 -5 -3 -12 3 -15 12 -2 10 -3 3 -1
-15z"/>
<path d="M1872 5230 c1 -14 -3 -34 -8 -45 -7 -17 -6 -18 8 -5 9 8 14 18 11 23
-2 4 1 7 6 7 6 0 11 5 11 11 0 5 -4 8 -9 4 -5 -3 -12 3 -14 12 -3 11 -5 9 -5
-7z"/>
<path d="M2115 5222 c2 -22 0 -32 -8 -29 -7 2 -11 13 -10 23 1 10 0 13 -3 7
-3 -7 -13 -13 -22 -13 -10 0 -3 -8 16 -16 17 -9 32 -24 32 -33 0 -14 -2 -14
-10 -1 -5 8 -10 10 -10 4 0 -5 6 -18 13 -27 9 -13 16 -14 27 -6 13 10 13 10
-1 6 -12 -4 -15 3 -15 34 1 21 4 39 9 39 4 0 7 5 7 11 0 5 -4 8 -9 4 -5 -3
-12 3 -15 12 -2 10 -3 3 -1 -15z"/>
<path d="M2530 5235 c0 -8 4 -15 10 -15 5 0 7 7 4 15 -4 8 -8 15 -10 15 -2 0
-4 -7 -4 -15z"/>
<path d="M1430 5231 c0 -5 5 -13 10 -16 6 -3 10 -2 10 4 0 5 -4 13 -10 16 -5
3 -10 2 -10 -4z"/>
<path d="M1535 5230 c-3 -5 -1 -10 4 -10 6 0 11 5 11 10 0 6 -2 10 -4 10 -3 0
-8 -4 -11 -10z"/>
<path d="M2050 5230 c0 -5 5 -10 11 -10 5 0 7 5 4 10 -3 6 -8 10 -11 10 -2 0
-4 -4 -4 -10z"/>
<path d="M2415 5230 c-3 -5 -1 -10 4 -10 6 0 11 5 11 10 0 6 -2 10 -4 10 -3 0
-8 -4 -11 -10z"/>
<path d="M1030 5220 c0 -5 5 -10 11 -10 5 0 8 -4 5 -9 -3 -4 3 -16 14 -26 18
-17 21 -17 38 -2 17 15 21 17 42 17 15 0 12 17 -4 23 -11 4 -13 1 -9 -10 4
-10 2 -14 -4 -10 -6 4 -18 0 -26 -8 -20 -19 -31 -19 -24 -1 4 10 1 13 -9 9 -8
-3 -14 -2 -13 3 3 19 -1 34 -11 34 -5 0 -10 -4 -10 -10z"/>
<path d="M1356 5215 c-9 -9 -16 -13 -16 -9 0 4 -9 -3 -20 -16 -24 -28 -25 -34
-5 -53 11 -12 12 -17 2 -21 -6 -3 -1 -3 13 0 25 7 25 7 6 -15 -18 -20 -18 -22
-1 -41 10 -11 22 -17 26 -14 5 3 9 0 9 -5 0 -6 -7 -11 -15 -11 -8 0 -15 -4
-15 -10 0 -6 10 -5 25 2 36 16 30 36 -9 29 -5 -1 -6 5 -3 13 4 10 1 13 -9 9
-22 -8 -16 7 14 35 15 15 20 23 10 19 -10 -3 -26 2 -40 14 l-23 19 24 20 c12
11 28 17 34 13 5 -3 7 -1 3 5 -3 5 0 12 6 15 7 2 10 7 7 11 -4 4 -14 0 -23 -9z"/>
<path d="M1850 5221 c0 -7 -4 -9 -10 -6 -5 3 -10 1 -10 -6 0 -7 -3 -10 -6 -6
-4 3 -13 0 -20 -8 -22 -22 -16 -27 11 -9 14 9 25 12 25 8 0 -5 5 -1 11 9 6 10
8 21 5 24 -3 4 -6 1 -6 -6z"/>
<path d="M2219 5211 c-15 -17 -14 -18 21 -18 36 0 36 1 18 19 -21 21 -19 21
-39 -1z"/>
<path d="M1090 5209 c0 -5 5 -7 10 -4 6 3 10 8 10 11 0 2 -4 4 -10 4 -5 0 -10
-5 -10 -11z"/>
<path d="M1263 5212 c4 -2 3 -10 -4 -18 -8 -10 -8 -14 0 -14 6 0 11 5 11 10 0
6 5 10 10 10 7 0 7 -6 0 -19 -5 -11 -18 -18 -27 -17 -10 2 -12 1 -5 -1 7 -3
10 -9 7 -14 -4 -5 -1 -9 4 -9 6 0 11 4 11 9 0 4 11 20 24 34 19 20 20 25 7 25
-9 0 -23 1 -31 4 -8 3 -11 3 -7 0z"/>
<path d="M1966 5205 c-3 -8 -1 -15 3 -15 5 0 11 7 15 15 3 8 1 15 -3 15 -5 0
-11 -7 -15 -15z"/>
<path d="M2493 5200 c-1 -11 2 -20 5 -20 4 0 8 9 9 20 1 11 -2 20 -5 20 -4 0
-8 -9 -9 -20z"/>
<path d="M965 5200 c3 -5 8 -10 11 -10 2 0 4 5 4 10 0 6 -5 10 -11 10 -5 0 -7
-4 -4 -10z"/>
<path d="M1553 5195 c0 -8 4 -15 9 -15 4 0 8 7 8 15 0 8 -4 15 -8 15 -5 0 -9
-7 -9 -15z"/>
<path d="M1676 5198 c3 -4 0 -8 -5 -8 -6 0 -11 -4 -11 -10 0 -13 27 -2 33 14
3 7 -1 13 -9 13 -7 0 -11 -4 -8 -9z"/>
<path d="M2033 5195 c0 -8 4 -15 9 -15 4 0 8 7 8 15 0 8 -4 15 -8 15 -5 0 -9
-7 -9 -15z"/>
<path d="M2521 5194 c0 -11 3 -14 6 -6 3 7 2 16 -1 19 -3 4 -6 -2 -5 -13z"/>
<path d="M1580 5181 c0 -5 7 -11 15 -15 8 -3 15 -1 15 3 0 5 -7 11 -15 15 -8
3 -15 1 -15 -3z"/>
<path d="M1700 5180 c0 -5 5 -10 11 -10 5 0 7 5 4 10 -3 6 -8 10 -11 10 -2 0
-4 -4 -4 -10z"/>
<path d="M2060 5181 c0 -4 -9 -18 -20 -31 -18 -21 -18 -23 -2 -45 9 -13 20
-21 25 -18 4 2 -2 12 -14 22 -19 15 -20 18 -5 30 14 12 22 8 61 -30 27 -26 43
-50 40 -59 -2 -8 0 -22 5 -30 9 -13 11 -13 20 0 5 8 7 21 5 29 -3 8 4 25 16
37 18 20 20 26 9 39 -17 21 -5 31 14 12 8 -8 13 -16 11 -19 -2 -2 5 -4 16 -5
11 -1 17 2 14 7 -3 4 -2 10 2 13 5 2 2 2 -6 0 -8 -2 -22 4 -32 13 -18 16 -20
16 -39 -1 -11 -10 -17 -22 -13 -28 4 -6 0 -8 -10 -4 -11 4 -14 2 -10 -9 10
-27 29 -13 24 19 -1 10 17 9 23 -2 3 -5 -3 -20 -13 -32 l-19 -24 -54 54 c-29
30 -45 52 -35 48 9 -3 17 -2 17 2 0 5 -7 11 -15 15 -8 3 -15 2 -15 -3z m110
-141 c0 -5 -4 -10 -10 -10 -5 0 -10 5 -10 10 0 6 5 10 10 10 6 0 10 -4 10 -10z"/>
<path d="M2180 5180 c0 -6 -10 -15 -22 -20 -13 -5 -16 -9 -8 -9 22 -1 54 26
41 34 -6 3 -11 1 -11 -5z"/>
<path d="M2403 5183 c-20 -7 -15 -23 5 -17 15 5 15 4 1 -8 -22 -19 -42 -58
-29 -58 5 0 10 6 10 14 0 8 9 21 21 30 22 15 15 47 -8 39z"/>
<path d="M2540 5180 c0 -5 5 -10 11 -10 5 0 7 5 4 10 -3 6 -8 10 -11 10 -2 0
-4 -4 -4 -10z"/>
<path d="M1341 5171 c-15 -10 -7 -31 12 -31 7 0 6 4 -3 10 -13 9 -7 14 13 11
4 0 7 4 7 9 0 12 -10 13 -29 1z"/>
<path d="M1821 5171 c-15 -10 -7 -31 12 -31 7 0 6 4 -3 10 -13 9 -7 14 13 11
4 0 7 4 7 9 0 12 -10 13 -29 1z"/>
<path d="M2219 5167 c6 -8 26 -14 43 -14 18 0 25 2 15 4 -9 3 -15 9 -12 14 4
5 2 9 -4 9 -5 0 -12 -6 -15 -12 -5 -10 -7 -10 -12 0 -3 6 -10 12 -16 12 -7 0
-7 -5 1 -13z"/>
<path d="M2293 5167 c16 -11 15 -15 -12 -44 -16 -18 -26 -35 -22 -38 4 -2 14
7 21 20 7 14 17 25 22 25 13 0 10 -12 -9 -32 -15 -17 -15 -19 2 -38 10 -11 21
-17 25 -15 5 3 10 -1 13 -7 2 -8 8 -9 13 -4 8 8 -11 22 -19 14 -6 -5 -40 33
-34 38 3 3 19 -2 36 -10 33 -17 55 -22 31 -6 -10 6 -11 10 -2 10 6 0 21 -9 31
-19 19 -19 19 -20 -4 -45 -13 -14 -30 -26 -36 -26 -7 0 -3 9 9 20 24 22 29 40
11 40 -5 0 -8 -4 -5 -9 3 -5 -1 -14 -10 -21 -11 -10 -18 -10 -26 -2 -15 15
-28 15 -28 1 0 -5 5 -7 10 -4 6 3 13 -1 16 -10 4 -8 16 -21 28 -27 11 -6 18
-8 15 -4 -10 10 43 61 59 58 8 -2 6 4 -5 16 -10 10 -21 17 -25 15 -16 -8 -7
13 16 42 13 17 27 27 31 23 4 -4 0 -14 -9 -23 -20 -20 -20 -31 -1 -47 9 -7 22
-18 29 -25 8 -7 16 -9 20 -6 3 4 6 1 6 -5 0 -7 5 -12 10 -12 6 0 5 8 -2 19 -7
11 -15 18 -19 15 -4 -2 -18 5 -30 16 l-24 20 21 18 c17 15 19 21 10 34 -13 18
-34 8 -53 -26 -11 -20 -73 -32 -69 -12 2 6 1 8 -1 4 -10 -17 -20 -6 -20 22 0
17 2 30 4 30 10 0 33 -30 33 -42 0 -7 7 0 15 16 17 32 20 51 4 23 -9 -16 -12
-15 -43 8 -18 14 -37 25 -41 25 -5 0 -1 -6 8 -13z"/>
<path d="M982 5161 c-11 -7 -10 -10 3 -15 24 -9 32 -7 15 4 -13 9 -13 10 0 10
17 0 42 -34 33 -44 -10 -10 -25 -7 -18 4 3 6 1 10 -4 10 -21 0 -11 -19 22 -44
19 -15 38 -26 42 -26 5 0 1 6 -9 13 -16 12 -16 14 -2 26 19 16 21 31 4 31 -6
0 -9 -3 -5 -6 3 -4 -1 -13 -9 -21 -8 -9 -18 -13 -21 -9 -4 3 -2 11 5 18 8 8 7
17 -5 34 -16 25 -29 29 -51 15z"/>
<path d="M1186 5145 c9 -14 19 -24 21 -21 6 6 -20 46 -30 46 -4 0 0 -11 9 -25z"/>
<path d="M1670 5160 c-13 -8 -12 -10 3 -10 9 0 17 5 17 10 0 12 -1 12 -20 0z"/>
<path d="M1376 5152 c-3 -6 1 -12 9 -16 8 -3 12 -12 9 -21 -3 -8 -4 -15 -1
-15 3 0 7 6 10 13 6 16 -19 52 -27 39z"/>
<path d="M1855 5150 c-3 -5 -1 -10 4 -10 6 0 11 5 11 10 0 6 -2 10 -4 10 -3 0
-8 -4 -11 -10z"/>
<path d="M2525 5150 c-16 -7 -17 -9 -3 -9 9 -1 20 4 23 9 7 11 7 11 -20 0z"/>
<path d="M1085 5140 c3 -5 8 -10 11 -10 2 0 4 5 4 10 0 6 -5 10 -11 10 -5 0
-7 -4 -4 -10z"/>
<path d="M1147 5143 c-10 -10 -8 -33 3 -33 5 0 6 8 3 18 -4 11 5 6 25 -13 33
-31 46 -61 14 -32 -10 10 -23 17 -28 17 -5 0 -1 -5 9 -11 18 -10 18 -12 1 -30
-16 -18 -16 -20 0 -38 9 -10 15 -24 13 -32 -2 -8 -2 -11 0 -6 3 4 8 5 12 3 4
-3 8 4 8 15 1 12 -2 17 -9 13 -7 -5 -9 -1 -5 9 4 11 2 14 -9 10 -7 -3 -14 -2
-14 2 0 8 33 41 37 37 2 -2 8 -2 14 0 5 2 -6 20 -26 41 -38 40 -38 40 -48 30z"/>
<path d="M1279 5145 c0 -5 -2 -18 -4 -27 -2 -11 2 -15 11 -11 16 6 17 13 4 33
-5 8 -10 11 -11 5z"/>
<path d="M1102 5120 c-7 -11 -9 -20 -4 -20 4 0 13 9 20 20 7 11 9 20 4 20 -4
0 -13 -9 -20 -20z"/>
<path d="M1494 5132 c3 -5 -4 -16 -15 -25 -10 -9 -19 -21 -19 -26 0 -10 24
-37 37 -43 5 -1 20 -18 35 -35 26 -32 27 -32 34 -11 5 16 0 26 -17 39 -13 9
-26 16 -30 13 -4 -2 -18 5 -30 16 l-24 20 23 19 c23 20 29 41 11 41 -5 0 -8
-4 -5 -8z m66 -129 c0 -9 -6 -7 -20 4 -11 10 -20 21 -20 25 0 5 9 3 20 -4 11
-7 20 -18 20 -25z"/>
<path d="M1653 5120 c1 -11 5 -20 9 -20 3 0 6 9 5 20 -1 11 -5 20 -9 20 -3 0
-6 -9 -5 -20z"/>
<path d="M1950 5135 c0 -5 5 -17 10 -25 5 -8 10 -10 10 -5 0 6 -5 17 -10 25
-5 8 -10 11 -10 5z"/>
<path d="M1975 5130 c3 -5 8 -10 11 -10 2 0 4 5 4 10 0 6 -5 10 -11 10 -5 0
-7 -4 -4 -10z"/>
<path d="M976 5115 c-3 -8 -1 -15 4 -15 6 0 10 7 10 15 0 8 -2 15 -4 15 -2 0
-6 -7 -10 -15z"/>
<path d="M1220 5124 c0 -18 18 -36 29 -30 14 9 15 36 1 36 -5 0 -7 -8 -4 -17
5 -15 3 -15 -10 1 -9 11 -16 16 -16 10z"/>
<path d="M1553 5111 c-12 -10 -19 -21 -16 -25 3 -3 12 3 20 14 8 11 19 20 25
20 6 0 3 -9 -7 -20 -17 -19 -17 -21 0 -40 10 -11 21 -17 26 -15 4 3 14 -4 22
-15 16 -23 49 -18 40 6 -8 20 -23 17 -17 -3 5 -17 5 -17 -8 -1 -8 9 -21 18
-28 20 -20 4 -44 28 -37 35 4 3 18 -2 31 -11 14 -9 29 -16 33 -16 4 0 0 5 -10
11 -18 10 -18 12 -1 30 16 18 16 19 1 13 -9 -3 -17 -10 -17 -15 0 -5 -5 -9
-10 -9 -6 0 -10 7 -8 16 4 24 -14 26 -39 5z"/>
<path d="M2055 5120 c3 -5 11 -10 16 -10 6 0 7 5 4 10 -3 6 -11 10 -16 10 -6
0 -7 -4 -4 -10z"/>
<path d="M2490 5120 c-8 -5 -10 -10 -5 -10 6 0 17 5 25 10 8 5 11 10 5 10 -5
0 -17 -5 -25 -10z"/>
<path d="M2530 5115 c0 -8 4 -15 10 -15 5 0 7 7 4 15 -4 8 -8 15 -10 15 -2 0
-4 -7 -4 -15z"/>
<path d="M1700 5116 c0 -2 7 -12 16 -20 10 -11 11 -16 3 -16 -6 0 -18 8 -26
18 -13 15 -13 15 -3 -5 11 -24 26 -28 46 -15 8 5 4 13 -12 25 -13 10 -24 16
-24 13z"/>
<path d="M1930 5110 c0 -5 5 -10 11 -10 5 0 7 5 4 10 -3 6 -8 10 -11 10 -2 0
-4 -4 -4 -10z"/>
<path d="M2006 5108 c6 -17 -10 -26 -19 -10 -2 4 -3 2 -1 -4 2 -8 -10 -11 -33
-9 -22 2 -41 -2 -50 -11 -8 -8 -11 -14 -6 -14 5 0 14 5 21 12 7 7 12 8 12 2 0
-16 -21 -33 -35 -28 -7 3 -16 0 -20 -6 -7 -12 39 -72 49 -63 3 4 6 1 6 -5 0
-20 -19 -22 -32 -3 -12 17 -16 17 -33 5 -19 -14 -19 -14 1 -28 10 -8 21 -12
24 -10 2 3 -2 9 -10 14 -8 5 -11 12 -7 16 4 4 15 0 25 -10 16 -16 15 -19 -16
-47 -18 -16 -38 -27 -44 -23 -6 4 -8 3 -4 -4 3 -5 0 -12 -6 -15 -7 -2 -10 -7
-7 -11 6 -6 37 16 76 56 20 19 23 20 29 5 3 -9 11 -17 17 -17 5 0 3 8 -6 18
-24 26 -21 39 3 17 19 -18 22 -18 37 -2 11 11 13 17 5 17 -7 0 -12 7 -12 15 0
8 -5 15 -10 15 -7 0 -7 -7 0 -21 15 -26 6 -36 -14 -16 -8 8 -12 17 -9 21 3 3
-9 19 -27 36 -18 17 -30 33 -27 37 4 3 19 -6 34 -21 19 -19 33 -25 48 -21 11
4 26 7 33 7 6 1 12 6 12 11 0 5 -7 6 -16 3 -19 -7 -47 12 -38 25 3 5 0 9 -5 9
-16 0 -13 -16 5 -34 12 -12 12 -16 2 -16 -7 0 -21 8 -29 18 -15 17 -14 21 2
40 9 12 23 22 31 22 10 0 9 -3 -2 -10 -24 -16 -2 -11 31 6 17 8 33 13 36 10 6
-5 -23 -37 -32 -36 -14 3 -29 -8 -22 -16 4 -5 11 -3 15 3 9 14 52 -18 52 -39
0 -10 -3 -9 -10 2 -5 8 -10 10 -10 4 0 -5 6 -18 13 -29 11 -14 16 -15 22 -5 5
8 4 11 -1 7 -6 -3 -10 11 -10 34 1 21 4 39 9 39 4 0 7 5 7 11 0 8 -5 8 -15 -1
-8 -7 -12 -16 -9 -21 6 -10 -9 -12 -19 -2 -4 3 1 15 10 25 16 18 15 20 -6 41
-17 17 -21 18 -15 5z"/>
<path d="M1126 5095 c4 -10 -3 -13 -28 -10 -18 2 -25 1 -15 -1 9 -3 15 -9 12
-14 -3 -4 2 -10 10 -13 9 -4 12 -1 9 8 -4 10 3 13 28 10 18 -2 25 -1 15 1 -9
3 -15 9 -12 14 3 4 -2 10 -10 13 -9 4 -12 1 -9 -8z"/>
<path d="M1365 5100 c-3 -5 -1 -10 4 -10 6 0 11 5 11 10 0 6 -2 10 -4 10 -3 0
-8 -4 -11 -10z"/>
<path d="M1782 5090 c-7 -11 -19 -20 -27 -20 -8 0 -15 -5 -15 -10 0 -12 41 7
52 24 5 7 8 6 8 -3 0 -8 -8 -20 -17 -28 -16 -13 -16 -13 5 -3 23 11 27 26 14
47 -6 9 -11 7 -20 -7z"/>
<path d="M2505 5099 c-4 -6 -5 -12 -2 -15 2 -3 7 2 10 11 7 17 1 20 -8 4z"/>
<path d="M1295 5090 c3 -5 8 -10 11 -10 2 0 4 5 4 10 0 6 -5 10 -11 10 -5 0
-7 -4 -4 -10z"/>
<path d="M1495 5090 c-3 -5 -3 -14 0 -20 8 -13 35 -13 35 0 0 5 -7 7 -15 4 -8
-4 -15 -2 -15 4 0 6 6 13 13 15 9 4 9 6 0 6 -6 1 -15 -3 -18 -9z"/>
<path d="M2090 5090 c13 -9 7 -14 -12 -11 -5 0 -8 -3 -8 -9 0 -12 10 -13 29
-1 15 10 7 31 -12 31 -7 0 -6 -4 3 -10z"/>
<path d="M2214 5089 c-3 -6 0 -15 7 -20 19 -12 29 -11 29 1 0 6 -3 9 -7 9 -20
-3 -26 2 -13 11 9 6 10 10 3 10 -6 0 -15 -5 -19 -11z"/>
<path d="M2461 5091 c-7 -5 -10 -14 -7 -20 9 -14 36 -15 36 -1 0 5 -8 7 -17 4
-15 -5 -15 -3 1 10 21 17 11 22 -13 7z"/>
<path d="M970 5082 c0 -6 10 -20 22 -32 14 -13 17 -20 8 -20 -7 0 -10 -3 -7
-6 4 -4 17 0 29 8 21 13 25 13 42 -4 15 -14 22 -15 28 -6 11 18 10 28 -3 28
-5 0 -7 -4 -4 -10 3 -5 2 -10 -4 -10 -5 0 -11 4 -13 9 -1 5 -10 11 -18 13 -8
2 -19 8 -23 13 -5 6 -6 2 -3 -8 4 -12 2 -17 -6 -14 -7 2 -12 14 -10 25 2 12
-1 22 -7 22 -6 0 -8 -8 -5 -17 5 -15 3 -15 -10 1 -9 11 -16 15 -16 8z"/>
<path d="M1236 5063 c-27 -23 -28 -26 -13 -38 9 -7 17 -18 17 -26 0 -11 -2
-11 -10 1 -5 8 -10 10 -10 4 0 -5 6 -18 13 -29 11 -14 16 -15 22 -5 5 8 4 11
-2 7 -7 -4 -10 5 -8 24 1 17 8 35 15 39 17 10 59 -19 60 -40 0 -13 -1 -13 -10
0 -5 8 -10 10 -10 4 0 -5 6 -18 13 -29 11 -14 16 -15 22 -5 5 8 4 11 -2 7 -7
-5 -10 6 -8 29 2 23 -2 42 -11 51 -8 8 -14 11 -14 6 0 -5 5 -14 12 -21 9 -9 9
-12 1 -12 -14 0 -27 19 -28 39 0 24 -18 22 -49 -6z m24 -13 c-37 -29 -50 -24
-16 6 15 14 31 22 35 19 3 -4 -5 -15 -19 -25z"/>
<path d="M1382 5083 c-8 -3 -5 -11 10 -24 l23 -19 -24 -20 c-13 -11 -22 -22
-20 -23 2 -1 13 -9 24 -17 11 -8 17 -11 14 -7 -10 12 41 63 58 59 10 -2 9 2
-4 16 -10 10 -21 17 -24 15 -4 -1 -9 4 -13 12 -5 15 -20 18 -44 8z m47 -22
c18 -18 18 -19 -6 -46 -14 -14 -27 -24 -30 -21 -3 3 2 12 11 21 20 20 20 29 0
49 -8 9 -11 16 -5 16 6 0 19 -8 30 -19z"/>
<path d="M1643 5083 c9 -2 15 -9 12 -14 -6 -8 9 -13 29 -10 5 1 6 -5 3 -14 -4
-8 -2 -15 2 -15 5 0 11 7 15 15 5 14 -6 20 -28 16 -5 -1 -6 4 -3 12 3 8 -4 13
-22 14 -14 0 -18 -1 -8 -4z"/>
<path d="M1820 5086 c0 -2 7 -6 15 -10 8 -3 15 -1 15 4 0 6 -7 10 -15 10 -8 0
-15 -2 -15 -4z"/>
<path d="M2520 5074 c0 -8 -4 -12 -10 -9 -5 3 -10 1 -10 -4 0 -6 5 -11 11 -11
5 0 8 -4 4 -9 -3 -5 -2 -12 2 -14 5 -3 9 10 10 29 1 19 0 34 -3 34 -2 0 -4 -7
-4 -16z"/>
<path d="M1540 5067 c0 -9 54 -62 60 -58 2 1 6 -2 8 -8 2 -7 -4 -9 -15 -5 -14
5 -15 4 -4 -4 23 -17 42 -4 28 19 -6 10 -16 19 -21 19 -5 0 -20 10 -33 22 -13
12 -23 19 -23 15z"/>
<path d="M1819 5057 c-1 -7 -1 -16 0 -21 1 -5 -4 -6 -12 -3 -8 3 -13 -4 -14
-22 0 -14 1 -18 4 -8 2 9 9 15 14 12 8 -6 13 8 10 28 -2 11 14 8 28 -5 10 -11
11 -10 6 4 -8 20 -35 32 -36 15z"/>
<path d="M1860 5059 c0 -5 5 -7 10 -4 6 3 10 8 10 11 0 2 -4 4 -10 4 -5 0 -10
-5 -10 -11z"/>
<path d="M2106 5055 c-10 -8 -23 -12 -29 -8 -6 3 -7 1 -3 -5 4 -7 2 -12 -3
-12 -6 0 -11 -4 -11 -8 0 -5 7 -9 15 -9 8 0 12 3 10 7 -2 4 7 13 20 20 14 7
25 17 25 22 0 10 -1 10 -24 -7z"/>
<path d="M2190 5063 c0 -12 40 -34 50 -28 5 3 13 -3 19 -12 6 -10 11 -13 11
-8 1 6 5 1 10 -10 6 -16 8 -14 7 13 0 17 -6 37 -14 43 -8 8 -13 8 -13 1 0 -6
6 -12 13 -15 6 -2 9 -8 5 -12 -4 -4 -14 -2 -23 5 -8 7 -15 9 -15 5 0 -4 -11 0
-25 9 -14 9 -25 13 -25 9z"/>
<path d="M1130 5053 c0 -5 -11 -21 -24 -38 -22 -27 -24 -28 -40 -12 -10 9 -21
17 -26 17 -15 0 -21 -18 -9 -26 8 -4 9 -3 5 4 -12 20 3 13 31 -13 15 -13 32
-21 37 -16 13 9 27 8 43 -2 6 -4 15 -2 19 4 4 7 3 9 -3 6 -6 -4 -14 0 -17 9
-4 12 -2 15 9 10 8 -3 15 -1 15 5 0 6 -10 9 -22 7 -11 -2 -23 3 -25 10 -3 6 1
10 9 9 7 -2 9 -2 5 1 -4 2 -3 10 4 18 8 10 8 14 0 14 -6 0 -11 -3 -11 -7z m0
-65 c0 -6 -3 -8 -7 -5 -3 4 -12 2 -20 -4 -16 -14 -18 2 -1 19 12 12 28 7 28
-10z"/>
<path d="M1716 5045 c-3 -8 -1 -15 4 -15 6 0 10 7 10 15 0 8 -2 15 -4 15 -2 0
-6 -7 -10 -15z"/>
<path d="M1756 5026 c10 -8 21 -12 24 -10 5 6 -21 24 -34 24 -6 0 -1 -6 10
-14z"/>
<path d="M1260 5020 c0 -6 5 -8 10 -5 6 3 10 1 10 -4 0 -6 -6 -11 -12 -11 -10
0 -10 -2 0 -9 8 -4 13 -12 12 -17 -1 -5 4 -10 12 -12 8 -2 9 -1 3 5 -6 4 -11
19 -10 32 0 13 -6 26 -12 28 -7 3 -13 0 -13 -7z"/>
<path d="M1486 5022 c-4 -7 -2 -12 5 -12 7 0 9 -3 6 -7 -4 -3 2 -13 13 -20 11
-8 17 -19 14 -25 -4 -7 -2 -8 4 -4 12 7 5 36 -8 36 -4 0 -11 10 -17 22 -6 15
-12 18 -17 10z"/>
<path d="M2103 5015 c-3 -9 -3 -19 1 -22 3 -4 6 2 6 12 0 15 2 17 13 6 10 -10
7 -16 -13 -32 l-25 -20 25 12 c30 16 78 20 86 8 3 -5 10 -9 17 -9 6 0 3 6 -8
13 -11 9 -15 19 -10 27 7 11 10 9 16 -6 6 -16 8 -16 8 -2 1 28 -18 31 -39 6
l-20 -23 -19 23 c-23 26 -30 27 -38 7z"/>
<path d="M2446 5022 c-3 -5 1 -13 10 -16 8 -3 12 -10 9 -16 -4 -6 1 -7 10 -3
12 4 13 8 5 13 -7 4 -16 13 -20 20 -5 8 -10 8 -14 2z"/>
<path d="M1437 4994 c-26 -35 -17 -38 11 -3 13 16 20 29 15 29 -4 0 -16 -12
-26 -26z"/>
<path d="M1695 5010 c3 -5 8 -10 11 -10 2 0 4 5 4 10 0 6 -5 10 -11 10 -5 0
-7 -4 -4 -10z"/>
<path d="M1726 5011 c-4 -5 -3 -16 0 -25 8 -22 -2 -20 -28 4 -27 25 -27 25
-62 -6 -26 -23 -28 -27 -13 -36 9 -5 17 -16 17 -24 0 -13 -2 -13 -16 1 -15 15
-18 15 -35 -1 -19 -17 -49 -13 -49 7 0 8 3 9 13 0 11 -8 18 -6 32 9 17 18 17
20 2 14 -9 -3 -17 -10 -17 -16 0 -5 -5 -6 -10 -3 -6 4 -7 12 -4 18 4 7 -2 4
-12 -6 -19 -18 -19 -19 4 -38 24 -19 24 -19 41 2 16 20 18 20 31 4 13 -15 12
-19 -9 -36 -13 -11 -19 -19 -13 -19 31 0 61 63 41 87 -11 13 -10 18 11 35 23
19 24 19 44 -1 19 -20 19 -21 2 -40 -10 -11 -23 -18 -27 -15 -5 3 -9 0 -9 -5
0 -14 13 -14 28 1 6 6 15 8 19 4 4 -4 1 -12 -7 -17 -13 -9 -13 -10 0 -6 8 2
14 14 13 26 -2 11 2 21 7 21 6 0 10 -4 10 -9 0 -18 33 -21 51 -6 16 15 18 15
28 -2 6 -10 11 -13 11 -7 0 5 -5 15 -12 22 -9 9 -9 15 0 24 7 7 12 16 12 22 0
5 -6 2 -13 -8 -12 -16 -14 -16 -26 -2 -8 10 -21 14 -32 11 -21 -7 -26 10 -6
18 9 4 9 6 0 6 -6 1 -14 -3 -17 -8z m51 -36 c19 -20 9 -32 -12 -15 -9 7 -15 8
-15 2 0 -6 6 -12 13 -15 6 -2 9 -8 4 -13 -4 -4 -15 0 -24 9 -13 13 -14 19 -3
31 16 20 18 20 37 1z"/>
<path d="M1830 5010 c0 -5 8 -7 18 -3 13 5 12 1 -5 -16 -25 -23 -30 -41 -12
-41 5 0 8 4 4 9 -3 5 4 16 16 25 12 8 18 19 14 25 -8 14 -35 14 -35 1z"/>
<path d="M2233 5000 c-1 -11 4 -20 10 -20 7 0 6 -4 -3 -10 -9 -6 -10 -10 -3
-10 6 0 15 5 18 10 5 8 11 8 20 0 9 -8 17 -6 29 5 23 23 20 32 -3 11 -18 -17
-20 -17 -30 1 -6 11 -11 13 -11 5 0 -7 -4 -11 -10 -7 -5 3 -7 12 -3 20 3 8 1
15 -4 15 -5 0 -9 -9 -10 -20z"/>
<path d="M2397 4994 c-26 -35 -17 -38 11 -3 13 16 20 29 15 29 -4 0 -16 -12
-26 -26z"/>
<path d="M1455 4980 c-16 -17 -16 -20 -3 -15 9 4 19 13 22 21 7 19 2 18 -19
-6z"/>
<path d="M2068 4993 c6 -2 9 -10 6 -15 -4 -7 -2 -8 4 -4 18 11 14 26 -5 25
-11 0 -13 -3 -5 -6z"/>
<path d="M2414 4978 c-10 -13 -12 -18 -5 -11 7 6 21 9 30 6 13 -4 13 -3 2 5
-11 8 -11 10 0 15 8 3 9 6 3 6 -6 1 -19 -9 -30 -21z"/>
<path d="M1980 4980 c0 -5 7 -7 15 -4 8 4 15 8 15 10 0 2 -7 4 -15 4 -8 0 -15
-4 -15 -10z"/>
<path d="M1355 4970 c3 -5 8 -10 11 -10 2 0 4 5 4 10 0 6 -5 10 -11 10 -5 0
-7 -4 -4 -10z"/>
<path d="M1570 4969 c0 -5 5 -7 10 -4 6 3 10 8 10 11 0 2 -4 4 -10 4 -5 0 -10
-5 -10 -11z"/>
<path d="M1654 4969 c-10 -17 13 -36 27 -22 12 12 4 33 -11 33 -5 0 -12 -5
-16 -11z m26 -9 c0 -5 -4 -10 -10 -10 -5 0 -10 5 -10 10 0 6 5 10 10 10 6 0
10 -4 10 -10z"/>
<path d="M1846 4924 c16 -13 16 -15 2 -10 -10 3 -18 1 -18 -4 0 -14 27 -13 36
1 3 6 0 15 -7 20 -24 15 -34 10 -13 -7z"/>
<path d="M1795 4902 c2 -22 0 -32 -8 -29 -7 2 -11 13 -10 23 1 10 0 13 -3 7
-3 -7 -13 -13 -22 -13 -10 0 -3 -8 16 -16 17 -9 32 -24 32 -33 0 -14 -2 -14
-10 -1 -5 8 -10 10 -10 4 0 -5 7 -19 15 -30 26 -34 16 -40 -15 -7 -34 37 -65
49 -84 34 -7 -6 -16 -8 -19 -4 -11 11 -8 23 5 21 6 -2 14 5 16 15 2 9 -1 17
-7 17 -6 0 -7 -7 -4 -17 4 -11 3 -14 -5 -9 -7 4 -15 1 -18 -8 -3 -9 -14 -16
-23 -16 -14 0 -14 2 -1 11 12 9 11 10 -5 4 -11 -4 -27 -8 -35 -9 -27 -2 -69
-42 -66 -62 2 -10 -2 -23 -8 -27 -7 -6 -6 -7 4 -4 8 2 14 10 13 16 -2 6 2 11
7 11 13 0 13 -23 0 -36 -22 -22 -21 -62 2 -78 19 -14 23 -14 33 1 13 17 40 8
65 -21 16 -20 1 -20 -24 -1 -24 18 -36 19 -36 3 0 -6 3 -8 6 -5 14 14 42 -13
38 -35 -4 -21 -4 -22 5 -3 5 11 10 16 11 10 0 -5 6 0 13 13 l13 22 34 -30 c19
-16 40 -29 45 -30 6 0 22 -14 37 -32 15 -18 28 -27 28 -20 0 6 -5 12 -12 12
-6 0 -3 8 7 20 10 11 21 18 24 15 4 -2 13 0 20 4 9 6 10 14 4 26 -7 12 -13 14
-17 6 -4 -6 -2 -11 5 -11 17 0 2 -13 -19 -16 -9 -2 -18 -8 -20 -13 -7 -20 -22
-11 -19 10 1 12 -4 23 -11 25 -7 1 -8 0 -2 -3 12 -6 13 -23 2 -23 -5 0 -29 14
-55 31 -33 22 -44 35 -40 47 4 13 2 12 -10 -3 -15 -20 -16 -20 -41 4 -23 22
-29 23 -50 12 -25 -14 -46 -8 -46 11 0 7 4 7 14 -1 10 -9 16 -8 26 4 7 8 15
13 19 11 4 -3 7 4 8 15 2 16 -2 15 -23 -8 -13 -14 -24 -24 -25 -22 0 2 -2 12
-4 23 -2 10 2 27 8 38 10 16 9 22 -6 33 -17 12 -16 14 10 35 26 20 28 21 42 3
11 -14 13 -15 8 -2 -4 13 1 16 25 14 16 -1 33 -8 38 -14 5 -10 9 -9 13 3 4 9
14 16 22 16 15 0 15 -1 1 -16 -18 -18 -21 -34 -5 -34 5 0 8 4 5 9 -3 5 1 15
10 22 14 11 20 9 45 -19 28 -31 56 -35 45 -7 -3 8 -2 16 2 18 4 2 2 3 -4 1 -6
-1 -10 15 -10 37 1 21 4 39 9 39 4 0 7 5 7 11 0 5 -4 8 -9 4 -5 -3 -12 3 -15
12 -2 10 -3 3 -1 -15z"/>
<path d="M1977 4916 c-10 -8 -14 -16 -10 -19 5 -3 14 3 21 14 14 22 13 23 -11
5z"/>
<path d="M1730 4910 c0 -5 5 -10 11 -10 5 0 7 5 4 10 -3 6 -8 10 -11 10 -2 0
-4 -4 -4 -10z"/>
<path d="M1597 4903 c-4 -3 -7 -11 -7 -17 0 -6 5 -5 12 2 6 6 9 14 7 17 -3 3
-9 2 -12 -2z"/>
<path d="M1897 4888 c-17 -18 -16 -18 9 -14 19 4 24 1 20 -9 -3 -9 0 -12 9 -8
8 3 12 9 9 14 -3 5 -1 9 5 9 5 0 12 -5 14 -10 3 -6 4 -5 3 2 -2 7 -10 13 -20
13 -9 0 -20 5 -24 11 -4 6 -13 4 -25 -8z"/>
<path d="M1646 4885 c-3 -8 -1 -15 3 -15 5 0 11 7 15 15 3 8 1 15 -3 15 -5 0
-11 -7 -15 -15z"/>
<path d="M1990 4889 c0 -5 5 -7 10 -4 6 3 10 8 10 11 0 2 -4 4 -10 4 -5 0 -10
-5 -10 -11z"/>
<path d="M1544 4881 c4 -5 1 -12 -4 -14 -6 -3 -5 -4 2 -3 15 3 23 26 8 26 -6
0 -9 -4 -6 -9z"/>
<path d="M1713 4875 c0 -8 4 -15 9 -15 4 0 8 7 8 15 0 8 -4 15 -8 15 -5 0 -9
-7 -9 -15z"/>
<path d="M1562 4860 c-7 -11 -17 -19 -23 -17 -6 1 -13 -4 -14 -11 -2 -7 -1 -8
2 -2 2 5 8 8 13 5 8 -5 46 33 39 40 -3 2 -10 -5 -17 -15z"/>
<path d="M1740 4861 c0 -5 7 -11 15 -15 8 -3 15 -1 15 3 0 5 -7 11 -15 15 -8
3 -15 1 -15 -3z"/>
<path d="M1860 4860 c0 -6 -10 -15 -22 -20 -13 -5 -16 -9 -8 -9 22 -1 54 26
41 34 -6 3 -11 1 -11 -5z"/>
<path d="M1980 4860 c0 -5 5 -10 11 -10 5 0 7 5 4 10 -3 6 -8 10 -11 10 -2 0
-4 -4 -4 -10z"/>
<path d="M1890 4856 c0 -2 7 -9 15 -16 13 -11 14 -10 9 4 -5 14 -24 23 -24 12z"/>
<path d="M1930 4829 c-11 -20 -13 -20 -31 -3 -15 14 -21 15 -34 4 -23 -19 -38
-50 -25 -50 5 0 10 7 10 15 0 17 16 20 25 5 3 -5 11 -10 18 -10 6 0 2 6 -9 14
-10 8 -16 17 -12 21 3 4 23 -10 44 -29 43 -41 47 -42 64 -21 10 12 10 15 -1
15 -8 0 -5 6 7 16 18 15 18 15 -3 4 -14 -6 -20 -16 -17 -25 8 -20 -1 -19 -25
1 -16 14 -17 20 -8 35 7 11 18 19 25 19 10 0 10 -4 -2 -16 -24 -23 -19 -27 8
-7 16 12 20 20 12 25 -19 13 -35 9 -46 -13z"/>
<path d="M1581 4811 c-9 -6 -11 -14 -4 -26 7 -13 12 -14 18 -6 5 9 12 8 26 -4
17 -16 20 -16 42 2 20 15 22 21 11 31 -17 15 -32 16 -17 1 9 -9 8 -15 -2 -25
-19 -20 -26 -17 -22 9 2 12 2 17 0 11 -2 -6 -15 -11 -29 -11 -19 0 -22 2 -13
13 13 16 10 17 -10 5z"/>
<path d="M1730 4799 c0 -5 4 -8 8 -5 5 3 15 -6 22 -19 7 -14 17 -25 22 -25 5
0 0 14 -12 30 -21 30 -40 39 -40 19z"/>
<path d="M4018 4781 c-7 -10 -22 -17 -33 -15 -11 2 -28 1 -39 -2 -15 -5 -16
-8 -5 -15 8 -5 19 -9 24 -9 6 0 3 5 -5 10 -13 9 -13 10 0 10 8 0 24 -14 35
-30 11 -16 24 -30 29 -30 5 0 3 6 -3 14 -9 11 -9 15 1 20 7 3 4 4 -6 3 -10 -1
-21 3 -23 10 -3 7 5 10 24 7 20 -3 31 1 41 16 7 11 8 20 3 20 -5 0 -11 -7 -15
-15 -3 -8 -10 -15 -16 -15 -8 0 -8 6 0 20 13 25 5 26 -12 1z"/>
<path d="M4080 4797 c0 -3 7 -13 16 -22 9 -9 14 -19 10 -22 -3 -4 -11 -2 -18
5 -8 8 -16 5 -31 -14 -18 -23 -18 -26 -2 -44 15 -17 15 -19 -2 -29 -10 -6 -13
-11 -7 -11 6 0 17 6 23 14 9 11 8 18 -5 30 -9 10 -14 19 -12 22 9 8 38 -8 32
-17 -3 -5 1 -6 9 -4 7 3 22 -3 32 -15 10 -11 28 -20 39 -20 17 1 14 4 -10 14
-18 8 -35 19 -38 25 -9 14 3 13 33 -3 21 -11 26 -10 47 9 13 12 24 25 24 29 0
4 -10 -2 -22 -14 -12 -11 -28 -20 -35 -20 -8 0 -2 11 14 24 27 24 27 26 11 43
-11 10 -18 13 -18 5 0 -7 5 -12 10 -12 6 0 10 -5 10 -11 0 -6 -8 -8 -19 -4
-11 3 -25 -1 -34 -10 -21 -20 -30 -19 -23 3 4 12 -1 26 -14 37 -11 10 -20 15
-20 12z m20 -62 c14 -16 10 -18 -14 -9 -9 3 -16 10 -16 15 0 14 16 11 30 -6z
m70 6 c0 -5 -7 -12 -16 -15 -24 -9 -28 -7 -14 9 14 17 30 20 30 6z"/>
<path d="M4140 4785 c-7 -9 -10 -18 -7 -21 3 -3 10 4 17 15 13 25 8 27 -10 6z"/>
<path d="M4220 4785 c-7 -9 -10 -18 -7 -21 3 -3 10 4 17 15 13 25 8 27 -10 6z"/>
<path d="M4280 4796 c0 -2 7 -12 16 -21 19 -19 11 -33 -10 -16 -11 9 -15 8
-20 -5 -9 -23 -7 -31 4 -14 5 8 12 11 16 7 4 -4 2 -13 -4 -19 -7 -7 -12 -16
-12 -21 0 -5 12 6 26 23 15 17 29 28 32 25 3 -3 -5 -16 -18 -30 -14 -15 -18
-25 -11 -25 7 0 26 -14 42 -31 16 -17 29 -28 29 -23 0 4 -10 18 -22 32 -23 23
-23 24 -4 38 11 8 16 14 11 14 -5 0 -17 -7 -27 -17 -10 -9 -18 -11 -18 -5 0 6
10 18 22 26 12 9 18 16 13 16 -6 0 -3 5 5 11 13 9 13 10 -2 6 -9 -3 -28 3 -42
14 -14 11 -26 18 -26 15z"/>
<path d="M4330 4790 c0 -5 5 -10 11 -10 5 0 7 5 4 10 -3 6 -8 10 -11 10 -2 0
-4 -4 -4 -10z"/>
<path d="M4390 4780 c-14 -11 -20 -20 -15 -20 6 0 3 -5 -5 -11 -13 -9 -13 -10
0 -6 8 2 14 10 13 16 -2 6 3 11 11 11 8 0 16 7 20 15 7 19 6 19 -24 -5z"/>
<path d="M4485 4790 c-16 -7 -17 -9 -3 -9 9 -1 20 4 23 9 7 11 7 11 -20 0z"/>
<path d="M4554 4776 c1 -20 26 -36 26 -16 0 6 -4 8 -10 5 -16 -10 -11 7 6 19
13 10 13 12 -4 12 -13 0 -19 -7 -18 -20z"/>
<path d="M4604 4786 c-10 -8 -17 -16 -14 -19 3 -2 14 4 24 14 23 22 18 25 -10
5z"/>
<path d="M4695 4775 c17 -14 34 -25 39 -25 6 0 -5 11 -24 25 -43 32 -54 32
-15 0z"/>
<path d="M4750 4762 c24 -23 48 -39 51 -36 4 2 14 -5 23 -17 8 -12 19 -18 25
-14 14 8 14 35 1 35 -5 0 -7 -8 -4 -17 5 -17 5 -17 -8 -1 -8 9 -21 18 -28 20
-8 2 -26 13 -40 26 -14 13 -34 28 -45 33 -11 6 0 -7 25 -29z"/>
<path d="M4768 4782 c13 -12 30 -18 38 -15 9 3 14 0 12 -7 -2 -7 4 -15 12 -17
12 -4 12 -3 2 5 -8 5 -13 12 -13 16 3 24 0 29 -10 19 -9 -9 -18 -8 -38 4 l-26
15 23 -20z"/>
<path d="M4855 4790 c-3 -5 -1 -10 4 -10 6 0 11 5 11 10 0 6 -2 10 -4 10 -3 0
-8 -4 -11 -10z"/>
<path d="M4970 4780 c-13 -11 -18 -20 -13 -20 6 0 16 7 24 16 12 14 14 14 26
-2 7 -10 13 -13 13 -7 0 6 -6 16 -13 22 -11 8 -20 6 -37 -9z"/>
<path d="M5090 4780 c-13 -11 -19 -20 -15 -20 5 0 17 7 27 17 17 15 19 15 36
0 10 -10 22 -17 27 -17 4 0 -2 9 -15 20 -13 11 -26 20 -30 20 -4 0 -17 -9 -30
-20z"/>
<path d="M5232 4788 c-7 -7 -12 -16 -12 -22 0 -5 6 -2 13 8 12 16 14 16 26 2
8 -9 18 -16 24 -16 5 0 0 9 -13 20 -27 24 -23 23 -38 8z"/>
<path d="M1860 4780 c0 -5 5 -10 11 -10 5 0 7 5 4 10 -3 6 -8 10 -11 10 -2 0
-4 -4 -4 -10z"/>
<path d="M4244 4773 c-4 -10 -8 -24 -9 -31 0 -7 -11 -21 -24 -31 -18 -14 -22
-23 -16 -40 l7 -23 15 21 c8 12 21 21 29 21 8 0 14 5 14 10 0 12 -41 -7 -52
-24 -5 -7 -8 -5 -8 5 0 9 11 22 25 29 14 8 24 19 21 26 -2 6 2 21 10 33 8 11
11 21 6 21 -6 0 -13 -8 -18 -17z"/>
<path d="M4410 4755 c-14 -18 -27 -32 -29 -30 -4 5 -31 -21 -31 -30 0 -3 10 1
23 10 13 8 26 13 28 11 2 -3 15 4 29 14 19 14 22 22 14 38 -9 20 -10 19 -34
-13z m14 -20 c-26 -19 -32 -9 -8 14 10 10 21 14 23 9 1 -5 -5 -15 -15 -23z"/>
<path d="M4515 4779 c-11 -16 -1 -19 13 -3 7 8 8 14 3 14 -5 0 -13 -5 -16 -11z"/>
<path d="M4635 4780 c-8 -13 3 -30 18 -30 7 0 6 4 -3 10 -8 5 -12 11 -9 15 3
3 21 -8 39 -24 32 -27 33 -30 16 -46 -20 -20 -35 -13 -17 9 9 11 8 15 -5 20
-23 9 -31 7 -14 -4 8 -5 11 -12 7 -16 -3 -4 -13 -1 -22 6 -12 10 -18 10 -32
-1 -37 -29 -40 -41 -16 -65 16 -16 16 -18 -5 -35 l-22 -18 22 -7 c17 -5 26 -1
36 15 14 21 16 21 34 4 20 -17 21 -17 49 17 16 19 29 38 29 42 0 4 8 8 18 8
10 0 13 -3 6 -8 -17 -11 -36 -52 -24 -52 5 0 10 6 10 14 0 8 9 21 21 29 l21
15 -23 7 c-17 6 -27 3 -37 -13 -27 -40 -52 -65 -60 -58 -4 4 2 14 12 22 11 8
15 14 9 14 -7 0 -15 -4 -18 -10 -9 -15 -25 -12 -25 5 0 7 -8 18 -17 24 -10 5
-14 13 -10 18 5 4 17 -2 27 -14 9 -12 20 -19 23 -16 4 3 -5 15 -19 26 -20 15
-28 17 -37 8 -9 -10 -8 -16 7 -27 17 -12 18 -17 6 -39 -7 -14 -20 -25 -27 -25
-10 0 -8 6 6 21 20 22 20 22 -2 40 l-22 19 24 20 24 21 23 -22 c23 -22 24 -22
44 -4 27 24 26 29 -12 64 -36 33 -43 36 -53 21z"/>
<path d="M4890 4773 c6 -13 18 -23 28 -22 14 0 14 2 2 6 -8 4 -21 13 -28 22
-11 14 -11 13 -2 -6z"/>
<path d="M4920 4780 c-13 -8 -12 -10 3 -10 9 0 17 5 17 10 0 12 -1 12 -20 0z"/>
<path d="M5040 4780 c-13 -8 -12 -10 3 -10 9 0 17 5 17 10 0 12 -1 12 -20 0z"/>
<path d="M5180 4780 c0 -6 7 -10 15 -10 8 0 15 2 15 4 0 2 -7 6 -15 10 -8 3
-15 1 -15 -4z"/>
<path d="M5300 4778 c0 -4 7 -8 15 -8 8 0 15 4 15 8 0 5 -7 9 -15 9 -8 0 -15
-4 -15 -9z"/>
<path d="M1690 4769 c0 -5 -3 -8 -7 -6 -5 3 -15 -2 -23 -11 -13 -14 -12 -15 5
-8 11 5 31 9 45 8 16 0 18 2 7 5 -9 2 -15 9 -12 14 4 5 1 9 -4 9 -6 0 -11 -5
-11 -11z"/>
<path d="M1733 4769 c16 -9 15 -12 -8 -43 -14 -18 -25 -37 -25 -41 0 -5 6 -1
13 9 12 16 14 16 31 -3 20 -23 36 -27 36 -11 0 6 -5 9 -11 8 -6 -2 -14 3 -17
11 -3 9 0 11 7 7 7 -4 24 6 41 24 16 17 34 29 40 25 5 -3 10 -1 10 4 0 18 -26
12 -45 -9 -10 -12 -25 -18 -33 -15 -12 4 -12 2 -3 -9 9 -11 7 -13 -14 -13 -29
0 -31 3 -10 24 12 12 13 18 4 29 -6 8 -17 14 -23 14 -6 0 -3 -5 7 -11z"/>
<path d="M1902 4766 c7 -8 16 -12 21 -9 4 2 7 -1 7 -6 0 -6 6 -11 13 -11 6 1
1 10 -12 20 -27 23 -48 27 -29 6z"/>
<path d="M3915 4770 c-3 -6 1 -7 9 -4 18 7 21 14 7 14 -6 0 -13 -4 -16 -10z"/>
<path d="M5336 4765 c-11 -8 -15 -15 -9 -15 6 0 16 7 23 15 16 19 11 19 -14 0z"/>
<path d="M1590 4760 c-13 -8 -12 -10 3 -10 9 0 17 5 17 10 0 12 -1 12 -20 0z"/>
<path d="M1977 4756 c-10 -8 -14 -16 -10 -19 5 -3 14 3 21 14 14 22 13 23 -11
5z"/>
<path d="M4470 4760 c18 -12 30 -13 30 -2 0 4 -10 9 -22 9 -18 2 -20 0 -8 -7z"/>
<path d="M4530 4755 c0 -8 4 -15 10 -15 5 0 7 7 4 15 -4 8 -8 15 -10 15 -2 0
-4 -7 -4 -15z"/>
<path d="M4610 4758 c0 -10 -4 -17 -9 -15 -5 1 -17 -7 -26 -18 -14 -17 -16
-17 -11 -2 5 14 2 16 -13 8 -10 -6 -21 -7 -25 -4 -3 3 -6 1 -6 -6 0 -6 7 -11
16 -9 10 2 19 -3 21 -10 3 -8 -1 -10 -14 -5 -17 7 -17 6 0 -11 24 -24 22 -43
-3 -21 -19 17 -21 17 -40 0 -18 -16 -20 -16 -36 -1 -20 20 -11 34 11 16 10 -8
15 -9 15 -1 0 6 -4 11 -10 11 -5 0 -10 5 -10 11 0 5 5 7 10 4 6 -3 10 -1 10 4
0 17 -15 13 -35 -9 -18 -20 -18 -21 1 -41 20 -19 54 -18 54 2 0 5 5 9 11 9 6
0 9 -7 6 -14 -4 -10 -1 -13 9 -9 8 3 14 2 13 -3 -5 -27 1 -34 20 -22 17 11 18
14 4 34 -13 21 -13 26 3 53 10 16 20 28 24 26 14 -8 29 11 20 25 -8 13 -10 12
-10 -2z m-40 -118 c0 -5 -5 -10 -11 -10 -5 0 -7 5 -4 10 3 6 8 10 11 10 2 0 4
-4 4 -10z"/>
<path d="M4848 4763 c6 -3 10 -9 6 -14 -5 -8 9 -13 29 -10 11 2 8 -14 -5 -28
-11 -10 -10 -11 4 -6 34 13 29 42 -6 36 -5 -1 -6 4 -3 12 3 8 -3 13 -17 14
-11 0 -15 -1 -8 -4z"/>
<path d="M4993 4720 c0 -37 2 -48 8 -35 4 11 8 16 8 11 1 -6 7 -2 14 9 9 11
19 15 26 10 10 -6 11 -3 2 12 -6 11 -7 23 -4 27 3 3 1 6 -6 6 -7 0 -11 -6 -8
-14 7 -17 -20 -43 -31 -31 -4 4 -1 10 6 12 6 3 12 9 12 14 0 6 -4 8 -9 4 -5
-3 -11 3 -13 12 -3 10 -5 -7 -5 -37z"/>
<path d="M5104 4756 c-9 -10 -6 -13 16 -13 23 0 26 3 15 14 -16 16 -17 16 -31
-1z"/>
<path d="M5240 4754 c0 -8 -4 -12 -10 -9 -5 3 -10 2 -10 -4 0 -5 6 -11 13 -14
6 -2 9 -8 5 -12 -11 -12 -38 14 -31 31 3 8 -1 14 -8 14 -7 0 -9 -3 -6 -6 3 -4
2 -16 -4 -27 -9 -15 -8 -18 2 -12 7 5 17 1 26 -10 7 -11 13 -15 14 -9 0 5 4 0
8 -11 6 -14 8 -3 8 33 0 28 -1 52 -3 52 -2 0 -4 -7 -4 -16z"/>
<path d="M1860 4745 c-7 -8 -16 -12 -21 -10 -9 6 -49 -33 -49 -48 0 -4 5 -17
10 -28 7 -13 7 -19 0 -19 -5 0 -10 5 -10 10 0 6 -5 10 -11 10 -5 0 -7 -4 -4
-10 3 -5 2 -10 -4 -10 -5 0 -15 8 -20 18 -6 9 -11 12 -11 7 0 -6 5 -16 12 -23
9 -9 9 -12 1 -12 -16 0 -28 21 -26 45 1 16 1 17 -3 2 -3 -9 -10 -15 -15 -12
-20 13 -7 -11 16 -28 17 -12 30 -15 42 -9 10 5 31 7 47 6 26 -3 27 -2 10 10
-15 12 -16 16 -5 30 7 9 20 16 27 16 8 0 14 5 14 10 0 12 -41 -7 -52 -24 -5
-7 -8 -6 -8 4 0 17 28 43 51 48 7 2 17 9 21 15 4 6 10 8 14 4 4 -4 2 -13 -4
-19 -7 -7 -12 -17 -12 -22 0 -6 5 -3 11 7 5 9 15 17 21 17 7 0 7 -4 -1 -14 -9
-10 -8 -15 4 -20 19 -7 47 3 39 15 -3 5 -1 9 5 9 5 0 12 -5 14 -10 3 -6 4 -5
3 2 -1 7 -13 14 -25 14 -12 1 -30 9 -40 18 -22 20 -25 20 -41 1z m70 -35 c0
-5 -4 -10 -10 -10 -5 0 -10 5 -10 10 0 6 5 10 10 10 6 0 10 -4 10 -10z"/>
<path d="M5291 4751 c-8 -5 -9 -11 -3 -15 5 -3 12 1 16 9 6 17 6 18 -13 6z"/>
<path d="M1620 4739 c0 -5 5 -7 10 -4 6 3 10 8 10 11 0 2 -4 4 -10 4 -5 0 -10
-5 -10 -11z"/>
<path d="M3902 4730 c8 -12 15 -15 19 -8 4 7 8 6 11 -3 3 -8 9 -10 14 -6 10 9
-16 28 -28 21 -4 -3 -8 0 -8 5 0 6 -5 11 -10 11 -6 0 -5 -8 2 -20z"/>
<path d="M4443 4725 c-13 -12 -23 -26 -23 -31 0 -5 4 -4 8 3 4 6 20 18 35 26
17 9 23 16 15 19 -7 2 -23 -6 -35 -17z"/>
<path d="M4505 4739 c-4 -6 -5 -12 -2 -15 2 -3 7 2 10 11 7 17 1 20 -8 4z"/>
<path d="M4940 4739 c0 -5 5 -7 10 -4 6 3 10 8 10 11 0 2 -4 4 -10 4 -5 0 -10
-5 -10 -11z"/>
<path d="M4946 4713 c-28 -32 -28 -34 -11 -53 22 -25 3 -27 -21 -2 -17 16 -18
16 -11 -1 5 -13 3 -17 -5 -14 -7 2 -12 11 -10 20 5 29 -18 28 -55 -2 -20 -17
-39 -28 -42 -25 -3 3 4 13 15 23 17 13 19 20 10 32 -13 17 -36 23 -36 9 0 -5
7 -10 15 -10 21 0 19 -18 -4 -32 -17 -11 -18 -14 -4 -34 8 -13 21 -20 29 -17
8 3 14 0 14 -6 0 -6 -4 -11 -9 -11 -5 0 -12 -8 -15 -17 -6 -14 -2 -13 15 4 22
22 22 23 4 43 -22 24 -4 27 21 3 17 -17 18 -17 11 0 -5 13 -3 17 5 14 7 -2 12
-11 10 -20 -4 -25 18 -31 41 -9 26 23 61 26 52 3 -5 -12 -2 -11 14 3 18 17 20
17 30 -1 6 -10 11 -13 11 -7 0 5 -5 15 -12 22 -9 9 -9 15 0 24 7 7 12 16 12
22 0 5 -6 2 -13 -8 -12 -16 -14 -16 -26 -2 -8 10 -21 14 -32 11 -22 -7 -24 1
-5 20 10 10 16 11 25 2 8 -8 11 -8 11 1 0 7 -5 12 -11 12 -8 0 -7 5 1 15 7 9
11 17 9 19 -2 1 -17 -12 -33 -31z m-69 -47 c-8 -20 16 -38 38 -29 25 9 11 -13
-17 -28 -18 -9 -20 -9 -15 4 8 20 -16 39 -39 31 -15 -5 -14 -2 5 15 27 25 35
26 28 7z m99 -10 c19 -19 18 -25 -4 -23 -10 0 -19 9 -19 19 -2 22 4 23 23 4z"/>
<path d="M5060 4739 c0 -5 5 -7 10 -4 6 3 10 8 10 11 0 2 -4 4 -10 4 -5 0 -10
-5 -10 -11z"/>
<path d="M5165 4740 c3 -5 8 -10 11 -10 2 0 4 5 4 10 0 6 -5 10 -11 10 -5 0
-7 -4 -4 -10z"/>
<path d="M5260 4741 c0 -6 5 -13 11 -17 8 -4 7 -9 -2 -15 -7 -4 -11 -10 -9
-13 3 -2 12 1 20 7 14 11 14 14 -2 30 -10 9 -18 13 -18 8z"/>
<path d="M5347 4743 c-10 -10 -8 -33 3 -33 5 0 7 7 4 15 -4 8 -1 15 5 15 10 0
15 -14 12 -32 0 -5 4 -8 9 -8 13 0 9 32 -5 42 -13 10 -20 10 -28 1z"/>
<path d="M1570 4729 c0 -5 5 -7 10 -4 6 3 10 8 10 11 0 2 -4 4 -10 4 -5 0 -10
-5 -10 -11z"/>
<path d="M1690 4729 c0 -5 -6 -7 -12 -3 -7 4 -10 3 -5 -1 4 -5 0 -19 -8 -32
-17 -25 -11 -31 10 -9 8 7 11 16 8 20 -4 3 -2 6 4 6 6 0 13 7 17 15 3 8 1 15
-4 15 -6 0 -10 -5 -10 -11z"/>
<path d="M3872 4735 c1 -5 -3 -21 -10 -35 -12 -23 -12 -24 2 -6 9 11 19 17 22
13 4 -4 2 -13 -5 -21 -9 -11 -8 -15 5 -20 9 -4 19 -4 22 -1 3 3 0 5 -6 5 -7 0
-12 5 -12 10 0 10 30 8 63 -5 9 -4 23 -2 31 4 7 6 16 8 19 4 11 -11 8 -23 -5
-20 -6 1 -13 -7 -15 -18 -3 -18 -2 -18 5 -2 4 10 11 18 15 18 21 -2 28 0 22 8
-3 5 0 11 7 14 7 2 5 3 -5 1 -9 -1 -21 5 -26 13 -7 13 -9 13 -14 -1 -4 -9 -14
-16 -22 -16 -15 0 -15 1 -1 16 18 18 21 34 5 34 -5 0 -8 -4 -5 -9 8 -13 -17
-30 -38 -27 -10 1 -27 13 -37 27 -11 13 -18 20 -17 14z"/>
<path d="M4734 4731 c4 -5 -6 -23 -20 -40 -30 -36 -25 -41 8 -8 25 26 35 57
18 57 -6 0 -9 -4 -6 -9z"/>
<path d="M4916 4725 c-3 -8 -1 -15 4 -15 6 0 10 7 10 15 0 8 -2 15 -4 15 -2 0
-6 -7 -10 -15z"/>
<path d="M5310 4725 c0 -8 4 -15 8 -15 5 0 9 7 9 15 0 8 -4 15 -9 15 -4 0 -8
-7 -8 -15z"/>
<path d="M1641 4723 c3 -20 -2 -26 -11 -13 -6 9 -10 10 -10 3 0 -19 21 -27 31
-12 12 19 11 29 -1 29 -5 0 -9 -3 -9 -7z"/>
<path d="M4761 4714 c0 -11 3 -14 6 -6 3 7 2 16 -1 19 -3 4 -6 -2 -5 -13z"/>
<path d="M5074 4718 c-3 -5 5 -22 17 -36 13 -15 25 -29 26 -31 4 -6 48 52 48
64 0 13 -83 16 -91 3z m72 -22 c-7 -12 -19 -21 -26 -21 -7 0 -19 9 -26 21 -14
20 -13 21 26 21 39 0 40 -1 26 -21z"/>
<path d="M5110 4700 c0 -5 5 -10 10 -10 6 0 10 5 10 10 0 6 -4 10 -10 10 -5 0
-10 -4 -10 -10z"/>
<path d="M1980 4700 c0 -5 5 -10 11 -10 5 0 7 5 4 10 -3 6 -8 10 -11 10 -2 0
-4 -4 -4 -10z"/>
<path d="M4500 4700 c0 -5 5 -10 11 -10 5 0 7 5 4 10 -3 6 -8 10 -11 10 -2 0
-4 -4 -4 -10z"/>
<path d="M5396 4692 c-5 -14 -3 -29 4 -37 15 -18 -1 -20 -18 -3 -9 9 -15 9
-24 0 -20 -20 -32 -13 -13 8 10 11 22 17 26 14 5 -3 9 0 9 5 0 14 -13 14 -28
-1 -6 -6 -15 -8 -19 -4 -4 4 -1 12 7 17 13 9 13 10 0 6 -8 -2 -14 -14 -13 -26
2 -11 -2 -21 -7 -21 -6 0 -10 4 -10 9 0 18 -33 21 -51 6 -16 -15 -18 -15 -28
2 -6 10 -11 13 -11 8 0 -6 5 -16 12 -23 9 -9 9 -15 0 -24 -7 -7 -12 -17 -12
-22 0 -6 5 -3 11 7 10 18 12 18 30 1 16 -14 19 -15 14 -3 -9 23 26 20 52 -3
26 -24 45 -16 39 18 -3 17 -1 24 7 21 7 -2 11 -12 9 -22 -3 -17 -2 -17 13 -1
23 22 42 20 22 -2 -10 -10 -17 -22 -17 -27 0 -4 9 3 21 16 l21 24 -21 14 c-12
7 -21 21 -21 29 0 14 2 13 13 -1 11 -16 12 -15 14 9 0 17 -2 22 -7 14 -6 -10
-9 -9 -12 1 -3 9 -7 6 -12 -9z m-87 -43 c16 -12 33 -19 38 -16 5 3 10 -3 10
-14 2 -16 -2 -17 -17 -9 -10 6 -22 15 -25 20 -3 6 -19 8 -36 5 -32 -6 -35 -1
-16 20 15 18 13 19 46 -6z"/>
<path d="M4381 4691 c-15 -10 -7 -31 12 -31 7 0 6 4 -3 10 -13 9 -7 14 13 11
4 0 7 4 7 9 0 12 -10 13 -29 1z"/>
<path d="M4895 4690 c3 -5 8 -10 11 -10 2 0 4 5 4 10 0 6 -5 10 -11 10 -5 0
-7 -4 -4 -10z"/>
<path d="M5030 4690 c0 -5 8 -7 18 -3 13 5 12 1 -5 -16 -25 -23 -30 -41 -12
-41 5 0 8 4 4 9 -3 5 4 16 16 25 12 8 18 19 14 25 -8 14 -35 14 -35 1z"/>
<path d="M5175 4689 c-4 -6 2 -17 14 -25 12 -9 19 -20 16 -25 -4 -5 -1 -9 4
-9 18 0 13 18 -11 41 -18 17 -19 21 -5 16 9 -4 17 -2 17 3 0 13 -27 13 -35 -1z"/>
<path d="M5295 4690 c3 -5 8 -10 11 -10 2 0 4 5 4 10 0 6 -5 10 -11 10 -5 0
-7 -4 -4 -10z"/>
<path d="M1864 4684 c-6 -2 7 -23 28 -46 21 -23 38 -45 38 -50 0 -4 5 -8 11
-8 5 0 8 4 4 9 -3 5 0 11 7 14 7 2 5 3 -4 2 -11 -2 -27 10 -40 28 -12 18 -27
35 -33 39 -6 5 -5 8 4 8 8 0 20 -8 27 -17 13 -17 15 -17 28 0 7 9 19 17 25 17
8 0 7 -5 -3 -16 -24 -23 -19 -27 8 -7 24 18 24 18 4 28 -16 7 -24 5 -35 -10
-13 -19 -15 -19 -24 -2 -10 17 -23 20 -45 11z"/>
<path d="M4079 4667 c-9 -12 -26 -21 -39 -20 -34 3 -15 -9 22 -13 24 -3 29 -1
18 6 -8 5 -10 10 -5 10 6 0 16 9 23 20 17 27 1 25 -19 -3z"/>
<path d="M4263 4684 c-7 -3 8 -24 35 -50 26 -24 42 -44 36 -44 -6 0 -17 7 -24
15 -7 8 -18 15 -24 15 -6 0 -3 -5 7 -11 18 -10 18 -12 1 -30 -17 -18 -16 -20
7 -47 40 -45 43 -48 26 -20 -21 33 -21 38 -2 38 8 0 15 5 15 10 0 7 -7 7 -21
0 -11 -7 -23 -9 -26 -6 -8 8 21 33 34 29 29 -10 19 19 -19 56 -50 50 -34 55
18 6 42 -40 59 -41 20 -2 -14 15 -26 23 -26 19 0 -4 -5 1 -11 11 -10 17 -23
20 -46 11z"/>
<path d="M4415 4670 c-3 -5 -1 -10 4 -10 6 0 11 5 11 10 0 6 -2 10 -4 10 -3 0
-8 -4 -11 -10z"/>
<path d="M1830 4661 c0 -5 8 -12 18 -16 9 -3 32 -25 50 -49 31 -42 41 -63 24
-52 -5 3 -16 -4 -25 -15 -9 -10 -22 -19 -29 -19 -8 1 -5 7 6 15 22 16 10 20
-14 5 -24 -15 2 -35 28 -21 17 9 23 8 30 -5 8 -15 10 -15 15 0 9 22 23 20 23
-2 0 -17 -9 -19 -98 -17 -68 1 -95 -1 -91 -9 5 -7 2 -7 -8 0 -8 7 -37 11 -66
10 -49 -2 -51 -1 -35 15 9 9 19 15 21 13 7 -6 41 38 36 47 -3 4 -1 10 5 14 5
3 10 1 10 -5 0 -6 5 -8 11 -4 8 4 6 10 -6 17 -18 9 -39 -8 -29 -24 7 -12 -36
-37 -56 -32 -10 3 -21 0 -24 -6 -4 -6 -12 -11 -17 -11 -6 0 3 17 20 37 17 21
31 42 31 48 0 5 -5 2 -11 -8 -10 -18 -12 -18 -34 3 l-24 22 -30 -23 c-20 -16
-28 -31 -26 -46 2 -12 -1 -24 -6 -27 -5 -2 -4 -3 3 -2 7 2 12 9 11 15 -2 6 2
11 7 11 16 0 12 -30 -5 -36 -8 -4 -12 -10 -9 -15 3 -5 -16 -9 -43 -9 -26 0
-298 -1 -604 -1 -528 -1 -558 -2 -615 -21 -122 -41 -232 -157 -262 -277 -4
-14 -7 -676 -7 -1471 l0 -1445 31 -66 c52 -110 160 -202 266 -226 37 -9 5761
-11 5793 -2 46 12 121 52 161 84 40 33 104 116 104 134 0 4 8 23 18 42 16 32
17 123 17 1489 l0 1455 -31 66 c-42 88 -114 161 -201 202 l-68 32 -324 2
c-252 2 -326 5 -332 15 -5 7 -9 8 -9 3 0 -6 -11 -11 -24 -11 -14 0 -22 4 -20
8 3 4 0 8 -5 8 -6 0 -11 -5 -11 -11 0 -8 -6 -7 -17 2 -9 8 -14 9 -10 3 4 -8
-3 -10 -23 -8 -19 2 -30 -1 -30 -9 0 -8 -3 -9 -8 -1 -4 7 -45 10 -107 9 -55 0
-108 3 -117 7 -14 7 -16 5 -12 -9 4 -11 3 -14 -3 -7 -4 6 -36 10 -75 9 -37 0
-65 3 -62 7 3 4 0 8 -5 8 -6 0 -11 -4 -11 -10 0 -5 -5 -10 -12 -10 -6 0 -8 3
-5 6 3 4 2 15 -4 25 -12 23 -44 26 -35 4 7 -19 -20 -46 -39 -39 -8 4 -13 10
-10 14 3 4 -2 11 -11 14 -21 8 -24 8 -24 -5 0 -5 5 -7 10 -4 6 3 10 2 10 -2 0
-5 -120 -9 -267 -8 -222 0 -268 3 -268 14 0 8 7 17 15 19 13 5 13 3 0 -14 -14
-18 -14 -18 6 -1 11 9 24 17 29 17 4 0 1 -8 -6 -17 -13 -16 -12 -17 4 -4 13
11 17 11 17 1 0 -8 3 -10 6 -7 12 11 -16 36 -39 35 -33 -2 -48 -18 -41 -42 6
-17 4 -19 -7 -10 -16 12 -287 13 -306 1 -6 -4 -14 -3 -18 2 -3 6 -20 8 -38 5
-51 -7 -1846 -6 -1858 1 -6 4 -8 14 -5 22 3 8 1 11 -5 8 -5 -4 -7 -16 -4 -28
6 -21 5 -21 -9 -4 -8 11 -12 25 -9 33 6 16 -22 20 -32 4 -7 -12 -25 -4 -25 11
0 6 5 7 10 4 6 -3 13 1 16 9 3 9 10 16 16 16 5 0 6 -4 3 -10 -3 -5 -2 -10 3
-10 6 0 12 6 15 14 4 10 -1 13 -18 11 -18 -2 -31 7 -51 36 -27 39 -74 77 -74
60z m-200 -104 c0 -3 -11 -4 -25 -4 -21 0 -23 2 -14 13 10 12 9 13 -5 8 -18
-7 -18 -7 -10 -28 5 -13 9 -14 20 -5 11 9 14 9 14 0 0 -6 -7 -14 -16 -18 -15
-5 -15 -7 1 -16 11 -6 21 -5 28 2 6 6 18 11 26 11 11 0 10 -4 -4 -18 -19 -17
-69 -26 -59 -10 10 16 -9 8 -22 -9 -17 -23 -18 0 -1 28 10 17 9 22 -6 34 -17
12 -16 14 9 34 27 21 27 21 46 2 10 -11 18 -22 18 -24z m3233 -51 c6 -14 0
-26 -13 -26 -3 0 -6 9 -6 20 0 23 11 27 19 6z m-2873 -689 c147 -34 281 -90
389 -162 24 -17 51 -34 59 -40 45 -29 172 -160 225 -230 103 -139 192 -357
212 -520 7 -59 7 -227 1 -270 -3 -16 -7 -46 -9 -65 -17 -137 -107 -347 -203
-476 -171 -230 -413 -379 -709 -438 -75 -15 -263 -22 -318 -11 -15 2 -54 10
-87 15 -450 80 -826 470 -894 930 -16 111 -12 301 9 390 8 36 17 75 20 88 10
40 66 175 97 232 104 190 297 374 483 462 28 12 52 25 55 28 3 3 10 6 15 7 6
1 30 10 55 19 53 19 148 43 205 51 22 3 41 7 43 8 10 9 297 -6 352 -18z m2900
-5 c609 -137 994 -764 839 -1367 -48 -186 -161 -386 -295 -519 -65 -65 -173
-146 -255 -190 -61 -33 -206 -92 -254 -102 -178 -40 -351 -46 -475 -18 -14 3
-36 8 -50 10 -108 19 -317 113 -420 191 -137 103 -263 251 -335 393 -29 58
-96 232 -94 245 1 3 -5 36 -12 73 -22 118 -16 342 13 447 6 22 13 48 15 57 4
26 55 152 64 162 5 6 9 18 9 28 0 10 5 18 10 18 6 0 10 5 10 11 0 13 77 131
116 179 49 58 136 141 202 191 124 94 357 190 497 205 28 3 52 7 53 9 12 11
288 -6 362 -23z"/>
<path d="M1730 3510 c0 -7 -2 -11 -5 -8 -3 3 -21 -10 -40 -29 l-34 -34 32 -30
c30 -27 31 -30 14 -43 -16 -12 -13 -14 25 -12 47 2 78 -11 78 -32 0 -10 -4
-10 -16 2 -23 24 -27 19 -7 -8 18 -24 18 -24 28 -4 7 17 5 24 -13 36 -21 14
-22 16 -6 33 16 18 16 20 0 38 -10 11 -24 17 -32 14 -8 -3 -14 0 -14 6 0 10
14 15 33 12 4 0 7 4 7 9 0 14 -13 13 -35 -3 -19 -14 -12 -41 8 -34 14 4 42
-21 34 -30 -8 -7 -69 29 -74 44 -6 18 56 58 70 44 17 -17 35 -13 47 8 8 16 7
19 -8 17 -9 -2 -21 2 -25 8 -6 7 -7 6 -4 -4 2 -8 10 -14 16 -12 6 1 11 -2 11
-8 0 -15 -30 -12 -36 3 -3 8 -11 14 -19 14 -8 0 -12 -4 -9 -9 3 -4 2 -8 -3 -8
-4 0 -21 -12 -36 -25 l-28 -25 28 -25 c15 -13 34 -25 41 -25 17 0 11 -22 -8
-28 -7 -3 -10 0 -6 7 4 6 3 11 -2 11 -5 0 -25 14 -43 30 l-34 30 40 35 c21 19
36 37 32 41 -4 4 -7 1 -7 -6z m0 -140 c0 -5 -5 -10 -11 -10 -5 0 -7 5 -4 10 3
6 8 10 11 10 2 0 4 -4 4 -10z"/>
<path d="M1680 3499 c0 -5 5 -7 10 -4 6 3 10 8 10 11 0 2 -4 4 -10 4 -5 0 -10
-5 -10 -11z"/>
<path d="M1845 3490 c-3 -6 1 -7 9 -4 18 7 21 14 7 14 -6 0 -13 -4 -16 -10z"/>
<path d="M1650 3479 c0 -5 -5 -7 -10 -4 -6 4 -9 3 -8 -2 1 -4 -3 -18 -10 -30
-7 -13 -10 -23 -6 -23 3 0 0 -8 -7 -17 -7 -10 -10 -15 -5 -11 5 4 16 3 25 -2
10 -5 23 -5 31 0 11 7 9 13 -11 29 l-24 21 23 19 c24 21 28 31 12 31 -5 0 -10
-5 -10 -11z m0 -80 c0 -5 -6 -6 -13 -3 -8 3 -14 11 -14 19 0 11 4 12 14 4 7
-6 13 -15 13 -20z"/>
<path d="M1868 3473 c7 -3 16 -2 19 1 4 3 -2 6 -13 5 -11 0 -14 -3 -6 -6z"/>
<path d="M1822 3461 c-11 -6 -10 -11 3 -25 21 -20 32 -21 15 -1 -7 9 -9 19 -5
23 4 4 10 1 13 -7 5 -15 59 -71 68 -71 3 0 -3 11 -13 24 -10 13 -21 22 -24 20
-3 -2 -11 8 -17 21 -12 27 -19 30 -40 16z"/>
<path d="M1790 3445 c0 -8 4 -15 10 -15 5 0 7 7 4 15 -4 8 -8 15 -10 15 -2 0
-4 -7 -4 -15z"/>
<path d="M1875 3450 c3 -5 8 -10 11 -10 2 0 4 5 4 10 0 6 -5 10 -11 10 -5 0
-7 -4 -4 -10z"/>
<path d="M1906 3427 c3 -10 9 -15 12 -12 3 3 0 11 -7 18 -10 9 -11 8 -5 -6z"/>
<path d="M1810 3409 c0 -5 5 -7 10 -4 6 3 10 8 10 11 0 2 -4 4 -10 4 -5 0 -10
-5 -10 -11z"/>
<path d="M1836 3401 c-3 -4 -3 -18 -1 -30 3 -15 0 -21 -8 -18 -7 2 -11 12 -9
22 3 14 1 15 -10 4 -12 -11 -12 -15 1 -29 14 -15 18 -15 34 -2 9 8 20 13 23
10 3 -3 -7 -15 -22 -27 -15 -11 -22 -21 -17 -21 5 0 14 5 21 12 6 6 15 8 19 4
4 -4 1 -12 -7 -17 -12 -9 -11 -10 4 -5 11 4 26 0 37 -10 11 -10 19 -14 19 -11
0 3 -12 17 -27 31 -15 14 -24 28 -20 32 3 3 13 -1 22 -10 24 -24 31 -19 9 6
-19 21 -19 21 1 14 12 -4 6 5 -15 23 -38 32 -46 36 -54 22z m48 -30 c3 -5 -4
-8 -17 -7 -14 0 -24 8 -24 19 -2 14 2 15 17 7 10 -6 21 -14 24 -19z"/>
<path d="M1666 3375 c-13 -10 -24 -11 -36 -5 -14 8 -17 5 -16 -13 1 -12 -2
-29 -8 -37 -6 -8 -7 -12 -2 -8 5 4 16 3 25 -2 10 -5 23 -5 32 1 12 7 12 9 -1
10 -8 1 -22 1 -30 0 -15 -2 32 44 53 52 7 2 10 7 7 10 -3 3 -14 -1 -24 -8z
m-26 -19 c0 -3 -4 -8 -10 -11 -5 -3 -10 -1 -10 4 0 6 5 11 10 11 6 0 10 -2 10
-4z"/>
<path d="M1660 3340 c0 -5 5 -10 11 -10 5 0 7 5 4 10 -3 6 -8 10 -11 10 -2 0
-4 -4 -4 -10z"/>
<path d="M1700 3333 c17 -8 11 -26 -7 -19 -16 6 -16 6 0 -12 11 -12 15 -26 11
-38 -4 -11 6 -4 24 16 35 39 44 28 11 -14 -21 -26 -21 -27 -3 -48 19 -20 19
-21 -6 -14 -19 6 -21 5 -10 -3 10 -7 11 -11 3 -11 -7 0 -13 -5 -13 -11 0 -6 9
-4 21 5 12 8 29 12 38 8 9 -3 4 6 -11 20 -30 28 -36 43 -14 35 11 -4 13 -1 9
10 -4 9 -2 14 3 10 22 -13 33 8 15 32 -16 21 -19 22 -34 7 -21 -21 -27 -20
-24 5 1 12 -4 23 -11 25 -7 1 -8 0 -2 -3z"/>
<path d="M1730 3329 c0 -5 5 -7 10 -4 6 3 10 8 10 11 0 2 -4 4 -10 4 -5 0 -10
-5 -10 -11z"/>
<path d="M1615 3289 c4 -5 1 -17 -7 -26 -8 -10 -8 -14 -1 -10 6 4 14 3 18 -3
4 -6 10 -8 15 -5 4 3 10 -2 14 -10 3 -8 11 -15 18 -15 9 0 8 3 -2 10 -13 9 -7
14 13 11 4 0 7 4 7 10 0 6 -7 8 -16 5 -18 -7 -47 11 -39 24 3 4 -2 11 -11 14
-9 3 -12 2 -9 -5z"/>
<path d="M1660 3290 c-8 -5 -11 -12 -7 -17 5 -4 12 -1 16 6 7 11 10 11 14 0 3
-9 6 -10 6 -2 1 17 -13 23 -29 13z"/>
<path d="M1810 3286 c0 -8 -9 -21 -20 -29 -18 -13 -19 -15 -5 -21 27 -10 34
-7 45 17 10 20 10 20 -3 5 -8 -10 -20 -18 -28 -18 -9 0 -10 3 -3 8 17 11 36
52 24 52 -5 0 -10 -6 -10 -14z"/>
<path d="M1846 3275 c4 -8 10 -15 15 -15 4 0 6 7 3 15 -4 8 -10 15 -15 15 -4
0 -6 -7 -3 -15z"/>
<path d="M1889 3266 c22 -23 22 -25 4 -35 -10 -6 -13 -11 -7 -11 6 0 17 6 23
13 8 11 6 19 -8 35 -10 12 -22 22 -26 22 -5 0 2 -11 14 -24z"/>
<path d="M1847 3233 c3 -8 2 -13 -3 -12 -27 5 -36 -1 -24 -16 8 -10 9 -15 2
-15 -6 0 -16 8 -22 18 -11 16 -11 16 -6 0 3 -10 1 -20 -4 -23 -6 -4 -10 -11
-10 -18 0 -6 6 -3 13 7 12 16 14 16 31 -3 l19 -20 18 23 c22 28 24 36 7 36 -6
0 -9 -3 -5 -6 6 -6 -16 -34 -26 -34 -2 0 -4 11 -4 25 0 13 2 24 6 23 19 -2 31
3 26 11 -3 5 3 12 12 14 10 3 6 4 -8 4 -18 -1 -25 -6 -22 -14z"/>
<path d="M1612 3216 c-1 -16 1 -17 8 -6 7 11 11 8 21 -13 7 -15 16 -27 21 -27
4 0 8 -5 8 -11 0 -6 -8 -8 -19 -4 -11 3 -22 1 -26 -5 -10 -17 -15 -51 -6 -45
5 3 12 -2 15 -11 9 -23 7 -34 -4 -34 -5 0 -9 5 -7 11 1 6 -5 14 -13 16 -10 3
-11 2 -4 -4 6 -4 10 -16 9 -25 -2 -11 2 -15 12 -11 13 5 13 2 -2 -20 -20 -31
-20 -32 5 -57 16 -16 24 -18 38 -10 15 10 15 11 0 6 -9 -2 -21 1 -25 7 -13 16
-14 57 -2 57 5 0 9 -3 9 -8 0 -4 9 -13 21 -20 17 -11 24 -10 49 11 20 18 38
23 60 21 28 -3 29 -2 16 11 -16 16 -30 20 -22 6 3 -5 -5 -8 -18 -8 -18 0 -23
4 -18 15 4 11 -2 9 -18 -6 -32 -30 -49 -28 -20 3 20 21 21 27 9 41 -7 9 -14
21 -15 28 -1 6 -5 20 -9 31 -6 18 -4 17 14 -4 12 -12 18 -27 15 -32 -3 -5 0
-9 5 -9 18 0 12 26 -9 45 -12 11 -18 25 -15 36 5 13 1 17 -14 16 -14 -1 -17
-5 -11 -11 16 -16 12 -30 -5 -16 -8 7 -15 18 -15 24 0 6 -8 16 -18 22 -15 10
-18 8 -20 -10z m35 -87 c-1 -12 5 -24 13 -26 13 -4 13 -3 0 6 -13 9 -13 12 3
28 9 9 17 13 18 8 0 -6 2 -20 5 -32 2 -12 -2 -24 -9 -26 -6 -2 -2 -2 11 0 27
4 28 -2 2 -29 -22 -24 -11 -53 12 -30 7 7 17 12 23 12 5 -1 -1 -10 -15 -21
l-24 -21 -23 26 c-12 15 -20 33 -17 41 4 8 0 25 -8 38 -15 22 -14 47 3 47 5 0
8 -10 6 -21z"/>
<path d="M1660 3060 c0 -5 5 -10 11 -10 5 0 7 5 4 10 -3 6 -8 10 -11 10 -2 0
-4 -4 -4 -10z"/>
<path d="M1695 3230 c-3 -5 -1 -10 4 -10 6 0 11 5 11 10 0 6 -2 10 -4 10 -3 0
-8 -4 -11 -10z"/>
<path d="M1765 3220 c3 -5 8 -10 11 -10 2 0 4 5 4 10 0 6 -5 10 -11 10 -5 0
-7 -4 -4 -10z"/>
<path d="M1910 3211 c0 -7 -5 -9 -12 -5 -6 4 -8 3 -4 -4 3 -6 -1 -18 -10 -26
-8 -9 -11 -16 -5 -16 14 0 46 49 37 57 -3 3 -6 1 -6 -6z"/>
<path d="M1613 3176 c0 -8 6 -12 14 -9 7 3 10 9 7 14 -8 14 -21 11 -21 -5z"/>
<path d="M1741 3171 c-7 -5 -10 -14 -7 -20 9 -14 36 -15 36 -1 0 5 -8 7 -17 4
-15 -5 -15 -3 1 10 21 17 11 22 -13 7z"/>
<path d="M1800 3154 c0 -8 -4 -12 -10 -9 -5 3 -10 2 -10 -3 0 -23 26 -18 28 4
1 13 0 24 -3 24 -3 0 -5 -7 -5 -16z"/>
<path d="M1900 3155 c-7 -9 -8 -15 -2 -15 5 0 12 7 16 15 3 8 4 15 2 15 -2 0
-9 -7 -16 -15z"/>
<path d="M1823 3138 c1 -9 -6 -23 -17 -31 -13 -10 -16 -20 -11 -36 l7 -23 15
21 c13 19 49 31 41 14 -2 -5 12 -24 31 -43 32 -31 33 -32 18 -7 -44 69 -63 79
-91 51 -12 -12 -16 -12 -16 -2 0 16 37 41 50 33 6 -3 7 1 4 9 -3 9 -10 14 -14
11 -5 -3 -11 1 -14 7 -3 7 -4 6 -3 -4z"/>
<path d="M1860 3139 c0 -5 5 -7 10 -4 6 3 10 8 10 11 0 2 -4 4 -10 4 -5 0 -10
-5 -10 -11z"/>
<path d="M1740 3119 c0 -13 33 -20 44 -9 8 8 6 9 -8 4 -12 -5 -17 -4 -13 3 3
5 0 10 -8 10 -8 0 -15 -4 -15 -8z"/>
<path d="M1876 3123 c-10 -10 -7 -23 5 -23 5 0 7 5 4 10 -10 16 7 11 19 -6 10
-14 12 -13 12 3 0 18 -27 28 -40 16z"/>
<path d="M1730 3089 c0 -5 5 -7 10 -4 6 3 10 8 10 11 0 2 -4 4 -10 4 -5 0 -10
-5 -10 -11z"/>
<path d="M1760 3080 c-8 -5 -12 -11 -9 -14 2 -3 11 -1 19 4 8 5 12 11 9 14 -2
3 -11 1 -19 -4z"/>
<path d="M1897 3070 c10 -11 19 -20 21 -20 1 0 -2 9 -8 20 -6 11 -15 20 -20
20 -6 0 -2 -9 7 -20z"/>
<path d="M1826 3054 c-8 -21 -8 -24 5 -24 5 0 7 5 4 10 -10 16 12 11 30 -6 9
-9 18 -14 21 -11 3 3 -8 14 -24 26 -26 18 -31 19 -36 5z"/>
<path d="M1846 3021 c-4 -6 -2 -11 4 -11 6 0 9 -4 6 -9 -3 -5 1 -12 10 -15 21
-8 31 -7 18 2 -6 4 -15 15 -21 26 -7 12 -13 15 -17 7z"/>
<path d="M1743 3013 c-10 -4 -10 -10 2 -26 21 -31 18 -46 -4 -19 -20 23 -54
21 -44 -4 8 -20 23 -17 17 4 -5 16 -5 16 8 0 8 -9 21 -18 28 -20 20 -4 44 -28
37 -35 -4 -3 -18 2 -31 11 -14 9 -29 16 -33 16 -4 0 0 -5 9 -11 9 -5 16 -15
14 -22 -1 -6 -1 -9 1 -4 10 16 24 6 18 -13 -4 -13 -2 -20 6 -20 7 0 9 3 6 7
-4 3 0 14 9 24 15 17 15 20 -5 45 -32 41 -24 54 9 14 16 -19 30 -29 30 -22 0
6 -5 12 -12 12 -6 0 -1 11 13 26 17 18 19 23 6 18 -9 -3 -17 -10 -17 -15 0 -5
-4 -9 -10 -9 -5 0 -9 10 -7 21 1 12 -4 23 -11 25 -7 1 -8 0 -2 -3 17 -8 11
-22 -10 -20 -12 1 -18 7 -16 14 3 7 4 13 3 12 -1 0 -8 -3 -14 -6z"/>
<path d="M1810 3009 c0 -5 5 -7 10 -4 6 3 10 8 10 11 0 2 -4 4 -10 4 -5 0 -10
-5 -10 -11z"/>
<path d="M1897 2990 c10 -11 19 -20 21 -20 1 0 -2 9 -8 20 -6 11 -15 20 -20
20 -6 0 -2 -9 7 -20z"/>
<path d="M1650 2990 c0 -5 5 -10 11 -10 5 0 7 5 4 10 -3 6 -8 10 -11 10 -2 0
-4 -4 -4 -10z"/>
<path d="M1836 2973 c-3 -4 -6 -11 -6 -17 0 -6 5 -4 10 4 6 10 10 11 10 3 0
-7 5 -13 10 -13 6 0 10 4 10 9 0 11 -26 22 -34 14z"/>
<path d="M1606 2961 c-4 -5 -2 -12 3 -15 5 -4 12 -2 15 3 4 5 2 12 -3 15 -5 4
-12 2 -15 -3z"/>
<path d="M1884 2961 c9 -13 -19 -32 -38 -25 -9 3 -16 1 -16 -6 0 -6 4 -9 9 -5
5 3 12 1 16 -5 3 -5 1 -10 -6 -10 -7 0 -9 -3 -5 -7 4 -4 18 6 31 21 27 31 31
46 14 46 -5 0 -8 -4 -5 -9z"/>
<path d="M1664 2935 c-4 -8 -14 -15 -23 -15 -14 0 -14 2 -1 10 8 5 11 10 5 10
-14 0 -42 -19 -30 -21 42 -7 117 -5 100 1 -11 5 -15 9 -10 9 11 1 -15 21 -28
21 -4 0 -10 -7 -13 -15z m26 -5 c0 -5 -4 -10 -10 -10 -5 0 -10 5 -10 10 0 6 5
10 10 10 6 0 10 -4 10 -10z"/>
<path d="M1885 2915 c-26 -27 -28 -34 -16 -45 11 -11 13 -11 9 1 -2 7 6 25 19
39 13 14 23 28 23 32 0 11 -1 10 -35 -27z"/>
<path d="M1804 2902 c-4 -9 -8 -21 -8 -25 -1 -4 -7 -12 -15 -16 -8 -5 -9 -11
-3 -15 9 -5 24 16 26 37 1 4 7 12 15 16 8 5 9 11 3 15 -5 3 -13 -2 -18 -12z"/>
<path d="M1607 2904 c-3 -4 -2 -15 4 -26 8 -14 7 -24 -3 -36 -11 -13 -11 -14
2 -7 20 12 60 15 60 4 0 -5 -4 -9 -9 -9 -5 0 -13 -9 -16 -20 -4 -11 -11 -17
-17 -14 -6 4 -6 -1 1 -14 15 -28 14 -42 -2 -36 -7 2 -13 -4 -14 -16 -1 -11 3
-20 8 -20 6 0 7 5 4 10 -7 11 8 14 18 3 10 -9 -14 -34 -26 -26 -5 3 -7 1 -3
-5 3 -5 0 -13 -6 -16 -7 -3 -4 -4 6 -3 10 1 21 -4 23 -11 3 -8 -2 -10 -14 -6
-13 4 -14 3 -5 -3 7 -6 14 -19 15 -30 0 -11 7 -20 13 -20 10 0 10 5 3 20 -16
29 -4 31 15 3 15 -23 15 -26 -2 -35 -9 -6 -12 -11 -6 -11 5 0 16 6 23 13 11
10 13 9 8 -4 -3 -10 1 -16 9 -16 9 0 13 6 9 15 -3 10 0 12 10 8 8 -3 15 0 15
5 0 6 -9 9 -20 6 -16 -4 -27 5 -50 38 -27 39 -28 44 -14 56 14 11 18 10 30 -6
8 -10 14 -14 14 -7 0 6 -10 18 -21 26 -13 9 -23 28 -24 46 -3 30 -2 30 16 14
18 -16 20 -16 39 1 18 16 20 16 26 1 3 -9 10 -13 16 -10 14 9 -24 33 -42 26
-8 -3 -12 -2 -8 3 4 4 3 16 -3 26 -7 14 -5 27 6 49 9 17 11 30 5 30 -5 0 -10
-8 -10 -17 -1 -17 -1 -17 -14 0 -7 9 -17 17 -21 17 -5 0 0 -9 10 -20 10 -11
16 -23 13 -26 -3 -3 -15 7 -27 22 -11 15 -21 22 -21 16 0 -6 5 -14 10 -17 13
-8 13 -25 1 -25 -10 0 -27 39 -23 53 2 9 -2 9 -11 1z m79 -108 c5 -30 -1 -33
-23 -11 -12 13 -13 18 -3 31 15 18 19 14 26 -20z"/>
<path d="M1902 2885 c-6 -14 -8 -25 -3 -25 8 0 23 41 17 47 -1 2 -8 -8 -14
-22z"/>
<path d="M1722 2889 c2 -7 -1 -20 -9 -27 -22 -22 -15 -36 33 -70 26 -18 33
-19 37 -7 4 10 1 12 -10 8 -12 -5 -14 -3 -8 7 5 8 4 11 -2 7 -6 -4 -22 2 -34
13 l-24 20 21 18 c18 16 19 19 6 32 -13 11 -14 11 -10 -1z"/>
<path d="M1823 2883 c4 -3 0 -15 -10 -25 -15 -17 -15 -19 1 -37 16 -17 15 -19
-5 -33 -17 -11 -20 -19 -14 -37 6 -18 9 -21 16 -10 5 8 9 19 9 24 0 6 -5 3
-10 -5 -9 -13 -10 -13 -10 0 0 8 9 21 20 28 25 15 49 5 79 -34 12 -15 21 -23
21 -18 0 5 -11 20 -25 34 -34 35 -55 52 -55 45 0 -4 -7 1 -16 10 -9 9 -14 18
-11 21 8 8 47 -15 47 -27 0 -6 5 -7 11 -3 8 5 7 10 -4 16 -9 5 -15 14 -13 21
1 6 1 9 -1 5 -10 -17 -24 -7 -18 12 4 13 2 20 -6 20 -7 0 -9 -3 -6 -7z"/>
<path d="M1735 2850 c-3 -5 -3 -14 0 -20 8 -13 35 -13 35 0 0 5 -7 7 -15 4 -8
-4 -15 -2 -15 4 0 6 6 13 13 15 9 4 9 6 0 6 -6 1 -15 -3 -18 -9z"/>
<path d="M1883 2843 c9 -2 15 -9 12 -14 -4 -5 -2 -9 3 -9 6 0 12 6 15 13 3 8
-4 13 -22 14 -14 0 -18 -1 -8 -4z"/>
<path d="M1615 2820 c-3 -5 -2 -10 4 -10 5 0 13 5 16 10 3 6 2 10 -4 10 -5 0
-13 -4 -16 -10z"/>
<path d="M1780 2821 c0 -5 7 -12 16 -15 14 -5 15 -4 4 9 -14 17 -20 19 -20 6z"/>
<path d="M1889 2801 c7 -5 17 -15 22 -22 6 -10 8 -8 7 7 -1 12 -10 21 -22 22
-15 1 -17 -1 -7 -7z"/>
<path d="M1830 2770 c0 -5 8 -7 18 -3 13 5 12 1 -5 -16 -25 -23 -30 -41 -12
-41 5 0 8 4 5 9 -3 5 1 15 10 22 14 12 21 9 47 -21 25 -29 27 -30 13 -7 -10
16 -25 37 -34 48 -17 20 -42 26 -42 9z"/>
<path d="M1700 2750 c-10 -14 -17 -16 -27 -8 -23 18 -14 0 12 -26 14 -14 25
-22 26 -18 0 4 5 -2 10 -13 7 -16 8 -13 5 13 -2 17 0 32 5 32 5 0 9 5 9 11 0
8 -5 8 -15 -1 -8 -7 -12 -16 -9 -21 6 -10 -9 -12 -19 -2 -4 3 0 15 10 25 9 10
14 20 12 23 -3 2 -11 -4 -19 -15z"/>
<path d="M1750 2750 c0 -5 7 -7 15 -4 8 4 15 8 15 10 0 2 -7 4 -15 4 -8 0 -15
-4 -15 -10z"/>
<path d="M1780 2725 c7 -8 17 -15 22 -15 5 0 3 7 -6 15 -8 8 -18 15 -22 15 -3
0 -1 -7 6 -15z"/>
<path d="M1754 2723 c4 -7 2 -13 -3 -13 -6 0 -11 -5 -11 -12 0 -9 3 -9 11 -1
9 9 15 8 25 -2 19 -19 17 -27 -5 -20 -11 3 -24 -1 -32 -11 -12 -14 -14 -14
-26 2 -7 10 -13 14 -13 9 0 -4 11 -23 25 -41 16 -21 23 -39 19 -51 -6 -16 -5
-15 9 2 18 23 22 39 7 30 -18 -11 -10 5 15 33 14 15 25 29 25 33 0 3 -12 16
-27 30 -14 13 -23 18 -19 12z m16 -62 c0 -12 -29 -35 -36 -28 -7 6 17 36 29
37 4 0 7 -4 7 -9z"/>
<path d="M1850 2719 c0 -5 5 -7 10 -4 6 3 10 3 10 -2 1 -4 12 -21 26 -38 28
-32 23 -18 -8 28 -20 27 -38 36 -38 16z"/>
<path d="M1810 2689 c0 -5 5 -7 10 -4 6 3 10 8 10 11 0 2 -4 4 -10 4 -5 0 -10
-5 -10 -11z"/>
<path d="M1848 2692 c8 -5 13 -13 12 -18 0 -5 7 -10 17 -11 17 -3 17 -2 0 5
-10 4 -18 12 -17 17 1 5 -4 11 -12 13 -11 3 -11 2 0 -6z"/>
<path d="M1671 2655 c12 -19 26 -35 32 -34 8 0 8 2 -1 6 -6 2 -10 9 -6 14 3 5
0 9 -7 9 -7 0 -10 3 -6 6 3 4 0 13 -8 20 -24 24 -25 15 -4 -21z"/>
<path d="M1834 2668 c3 -9 -4 -29 -16 -43 l-21 -27 22 -21 c18 -18 21 -18 15
-4 -3 9 -10 17 -15 17 -5 0 -9 5 -9 10 0 10 40 7 58 -4 4 -2 14 -1 22 4 12 7
11 9 -5 9 -43 1 -55 5 -52 15 5 12 11 12 42 0 17 -7 18 -6 5 8 -8 9 -17 14
-19 12 -3 -3 -11 6 -19 18 -7 13 -11 15 -8 6z"/>
<path d="M1798 2648 c-25 -31 -23 -46 2 -18 11 13 20 27 20 32 0 12 -3 10 -22
-14z"/>
<path d="M1880 2646 c0 -2 7 -7 16 -10 8 -3 12 -2 9 4 -6 10 -25 14 -25 6z"/>
<path d="M1770 2578 c-12 -22 -12 -22 6 -6 10 10 15 20 12 24 -4 3 -12 -5 -18
-18z"/>
<path d="M5130 3352 c0 -7 -3 -11 -7 -11 -20 3 -34 -2 -28 -10 3 -5 0 -11 -7
-14 -7 -2 -5 -3 5 -1 10 1 21 -4 23 -11 4 -10 12 -7 29 13 13 15 21 29 19 31
-2 3 -11 -5 -20 -17 -15 -21 -34 -22 -34 -1 0 6 4 8 9 4 11 -6 26 13 17 22 -3
4 -6 1 -6 -5z"/>
<path d="M5055 3340 c3 -5 11 -10 16 -10 6 0 7 5 4 10 -3 6 -11 10 -16 10 -6
0 -7 -4 -4 -10z"/>
<path d="M5041 3313 c8 -10 18 -21 24 -25 5 -4 6 -11 1 -15 -4 -4 -16 2 -26
15 -10 12 -21 22 -25 22 -4 0 -1 -7 6 -16 12 -15 11 -16 -6 -11 -11 4 -26 3
-34 -2 -10 -7 -8 -9 10 -10 47 -1 60 -4 56 -16 -6 -14 19 -49 27 -37 3 6 -1
13 -10 16 -15 6 -15 8 1 26 16 18 16 20 -2 44 -10 14 -22 26 -27 26 -5 0 -2
-8 5 -17z"/>
<path d="M5158 3308 c-20 -25 -23 -38 -7 -38 5 0 8 4 5 9 -9 14 20 32 40 24
18 -6 18 -6 2 10 -21 21 -19 21 -40 -5z"/>
<path d="M5098 3288 c8 -8 6 -16 -10 -30 -12 -10 -16 -18 -11 -18 6 0 16 7 23
15 13 15 30 12 30 -6 0 -6 -4 -8 -9 -5 -5 3 -14 -1 -21 -9 -9 -10 -9 -15 -1
-15 6 0 11 3 11 8 0 4 18 7 39 8 22 0 38 -4 37 -10 -2 -6 -1 -8 1 -3 9 15 24
6 18 -12 -3 -11 1 -25 10 -34 19 -20 19 -31 1 -24 -11 4 -13 1 -9 -10 4 -9 2
-14 -3 -10 -6 3 -16 2 -23 -2 -11 -7 -9 -13 8 -30 11 -11 21 -17 21 -12 0 6
-4 13 -10 16 -5 3 -10 12 -10 18 1 7 9 2 20 -11 l19 -22 15 22 c20 28 21 43 2
26 -8 -7 -12 -16 -9 -20 5 -10 -11 -10 -20 -1 -4 3 0 15 10 25 15 17 15 19 -2
38 -17 19 -17 21 0 40 16 18 16 20 -4 46 -12 15 -21 21 -21 13 0 -11 -2 -11
-10 1 -5 8 -13 11 -17 6 -7 -8 8 -19 22 -16 9 1 38 -31 32 -36 -3 -3 -19 2
-36 10 -33 17 -55 22 -31 6 13 -9 13 -10 0 -10 -8 0 -24 14 -35 30 -11 16 -24
30 -29 30 -6 0 -5 -5 2 -12z"/>
<path d="M5242 3264 c10 -10 20 -16 22 -13 3 3 -5 11 -17 18 -21 13 -21 12 -5
-5z"/>
<path d="M4959 3248 c-11 -8 -10 -8 5 -4 13 5 17 2 12 -9 -3 -8 -1 -15 4 -15
6 0 10 7 10 15 0 22 16 18 34 -7 20 -28 11 -38 -10 -12 -14 18 -15 18 -4 -4 7
-14 17 -21 26 -18 8 3 29 -8 47 -24 32 -30 32 -30 12 -46 -16 -13 -16 -15 -3
-11 11 4 24 -3 36 -20 14 -19 24 -24 40 -18 l22 6 -22 20 -23 19 23 19 22 20
-22 6 c-14 5 -25 2 -33 -9 -11 -14 -15 -13 -38 12 -14 15 -33 33 -41 39 -8 7
-19 20 -24 29 -11 19 -53 26 -73 12z m197 -104 c-9 -8 -16 -19 -16 -24 0 -5 7
-16 16 -24 9 -10 11 -16 4 -16 -7 0 -20 10 -29 22 -16 19 -16 23 -2 39 9 9 22
18 29 18 10 1 9 -3 -2 -15z"/>
<path d="M5242 3219 c-10 -16 -10 -24 3 -42 8 -12 15 -17 15 -11 0 5 -5 15
-12 22 -8 8 -8 15 2 27 7 8 11 17 9 20 -3 2 -10 -5 -17 -16z"/>
<path d="M4930 3216 c7 -7 14 -6 21 1 9 9 7 12 -9 10 -14 -1 -18 -5 -12 -11z"/>
<path d="M5130 3199 c0 -11 -5 -17 -10 -14 -6 4 -8 10 -6 14 3 4 -4 7 -14 8
-18 2 -18 1 1 -18 12 -12 25 -16 32 -12 14 9 19 43 6 43 -5 0 -9 -9 -9 -21z"/>
<path d="M5162 3200 c0 -14 2 -19 5 -12 2 6 2 18 0 25 -3 6 -5 1 -5 -13z"/>
<path d="M4916 3197 c3 -10 9 -15 12 -12 3 3 0 11 -7 18 -10 9 -11 8 -5 -6z"/>
<path d="M4965 3190 c6 -19 -8 -29 -18 -12 -2 4 -2 1 0 -6 1 -7 -8 -28 -22
-46 -14 -18 -25 -37 -25 -41 0 -5 6 -1 13 9 12 16 14 16 26 2 15 -18 31 -21
31 -5 0 5 -4 7 -10 4 -5 -3 -10 -2 -10 4 0 19 19 21 29 4 6 -10 11 -13 11 -8
1 6 6 1 11 -10 7 -16 8 -13 5 13 -2 17 0 32 5 32 5 0 9 5 9 11 0 8 -5 8 -15
-1 -8 -7 -12 -16 -9 -21 6 -10 -9 -12 -19 -2 -4 3 0 15 10 25 15 17 15 19 0
36 -10 10 -14 22 -10 25 3 4 1 7 -6 7 -8 0 -10 -7 -6 -20z m25 -25 c0 -3 -11
-18 -25 -32 -31 -34 -44 -24 -14 11 21 24 39 34 39 21z"/>
<path d="M4990 3203 c1 -14 28 -44 32 -36 3 4 -3 16 -14 26 -10 9 -18 14 -18
10z"/>
<path d="M5260 3203 c0 -5 5 -15 10 -23 7 -12 9 -10 7 8 -1 19 -17 33 -17 15z"/>
<path d="M4891 3193 c3 -20 -2 -34 -11 -28 -5 3 -10 2 -10 -3 0 -5 14 -9 30
-10 17 0 30 3 30 8 0 5 -7 7 -15 4 -11 -4 -13 -2 -9 9 3 8 0 18 -6 22 -6 3
-10 3 -9 -2z"/>
<path d="M5180 3180 c0 -5 5 -10 11 -10 5 0 7 5 4 10 -3 6 -8 10 -11 10 -2 0
-4 -4 -4 -10z"/>
<path d="M5050 3170 c13 -9 7 -14 -12 -11 -5 0 -8 -3 -8 -9 0 -12 10 -13 29
-1 15 10 7 31 -12 31 -7 0 -6 -4 3 -10z"/>
<path d="M4850 3145 c0 -4 7 -13 16 -19 14 -11 13 -14 -5 -36 l-21 -25 -20 24
c-11 13 -20 19 -20 13 0 -12 28 -42 39 -42 4 0 18 9 31 20 13 11 20 20 16 20
-4 0 0 7 9 16 9 9 13 19 9 23 -4 3 -9 0 -11 -7 -4 -10 -9 -9 -24 4 -10 9 -19
14 -19 9z"/>
<path d="M5066 3135 c-10 -8 -23 -12 -29 -8 -6 3 -7 1 -3 -5 3 -5 0 -12 -6
-15 -7 -2 -10 -7 -7 -11 4 -4 14 0 23 9 9 9 16 14 16 10 0 -4 7 1 16 10 21 21
14 27 -10 10z"/>
<path d="M4824 3119 c-3 -6 -2 -15 4 -21 12 -12 32 -2 31 15 0 9 -2 9 -6 0 -2
-7 -9 -13 -15 -13 -6 0 -8 7 -4 15 6 17 0 20 -10 4z"/>
<path d="M5033 3075 c-30 -24 -32 -24 -42 -8 -6 10 -11 13 -11 7 0 -6 7 -17
15 -24 8 -7 15 -18 15 -24 0 -6 -12 2 -25 17 -14 15 -25 22 -25 15 0 -9 -3 -9
-11 2 -9 13 -10 13 -6 0 2 -8 9 -15 16 -15 7 0 19 -8 26 -19 14 -19 39 -13 32
7 -4 13 21 42 29 34 3 -3 1 -15 -6 -26 -7 -14 -7 -21 0 -21 5 0 10 7 10 15 0
17 16 20 25 5 3 -5 11 -10 17 -10 6 0 -2 10 -17 22 -26 20 -27 22 -9 35 10 7
14 13 8 13 -5 0 -23 -12 -41 -25z"/>
<path d="M5095 3091 c3 -5 0 -11 -7 -14 -7 -2 -5 -3 5 -1 11 1 27 -12 42 -34
14 -20 25 -32 25 -26 0 5 -5 15 -12 22 -7 7 -9 12 -5 12 3 0 -5 11 -19 25 -25
25 -40 33 -29 16z"/>
<path d="M4776 3075 c-4 -12 22 -44 31 -37 1 1 6 2 11 2 4 0 0 -5 -8 -10 -9
-6 -10 -10 -3 -10 23 0 23 19 -1 43 -18 18 -26 21 -30 12z"/>
<path d="M4920 3074 c0 -8 -4 -12 -10 -9 -5 3 -10 2 -10 -4 0 -5 6 -11 13 -14
6 -2 9 -8 5 -12 -12 -12 -37 15 -31 32 3 8 -13 -4 -37 -28 -41 -42 -43 -42
-58 -23 -13 17 -14 17 -8 1 4 -12 -3 -30 -19 -51 -14 -18 -25 -37 -25 -42 0
-5 5 -1 11 9 10 18 12 18 35 -4 13 -12 24 -17 24 -11 0 7 -4 12 -10 12 -5 0
-10 5 -10 11 0 5 5 7 10 4 6 -3 10 -1 10 5 0 7 -8 9 -20 5 -11 -3 -20 -3 -20
0 0 9 27 35 37 35 4 0 22 14 40 30 l32 30 15 -22 c9 -12 16 -18 17 -13 0 6 4
1 8 -10 6 -14 8 -3 8 33 0 28 -1 52 -3 52 -2 0 -4 -7 -4 -16z"/>
<path d="M5180 3060 c0 -5 7 -7 15 -4 8 4 15 8 15 10 0 2 -7 4 -15 4 -8 0 -15
-4 -15 -10z"/>
<path d="M5110 3038 c21 -23 29 -51 8 -30 -7 7 -16 12 -21 12 -5 0 -1 -7 8
-16 26 -26 41 -3 20 30 -10 14 -21 26 -27 26 -5 0 0 -10 12 -22z"/>
<path d="M5160 3051 c0 -6 4 -13 10 -16 6 -3 7 1 4 9 -7 18 -14 21 -14 7z"/>
<path d="M4756 3035 c4 -8 8 -15 10 -15 2 0 4 7 4 15 0 8 -4 15 -10 15 -5 0
-7 -7 -4 -15z"/>
<path d="M4731 3033 c3 -20 -2 -34 -11 -28 -5 3 -10 2 -10 -3 0 -5 14 -9 30
-10 17 0 30 3 30 8 0 5 -7 7 -15 4 -11 -4 -13 -2 -9 9 3 8 0 18 -6 22 -6 3
-10 3 -9 -2z"/>
<path d="M4940 3020 c0 -5 5 -9 11 -7 6 1 14 -4 17 -12 2 -8 0 -11 -6 -8 -5 4
-16 0 -23 -9 -12 -14 -14 -14 -26 2 -19 26 -16 8 3 -22 9 -13 14 -27 11 -31
-8 -7 -31 18 -35 37 -2 8 -8 17 -13 18 -5 2 -9 8 -9 13 0 6 5 7 10 4 6 -3 10
-1 10 4 0 13 -10 14 -28 3 -9 -6 -7 -14 8 -30 12 -12 15 -22 9 -22 -6 0 0 -9
15 -21 22 -18 29 -19 42 -8 9 7 23 14 32 16 9 1 18 7 20 13 3 7 18 20 36 31
17 10 24 19 16 19 -8 0 -28 -12 -45 -28 -42 -38 -89 -44 -50 -6 8 8 17 15 20
14 22 -1 24 2 13 20 -13 21 -38 27 -38 10z"/>
<path d="M5060 3020 c0 -5 5 -10 11 -10 5 0 7 5 4 10 -3 6 -8 10 -11 10 -2 0
-4 -4 -4 -10z"/>
<path d="M5040 2983 c-14 -9 -27 -18 -30 -20 -5 -5 21 -23 33 -23 4 0 7 5 7
11 0 5 -5 7 -11 3 -7 -4 -10 -1 -7 7 3 8 10 13 16 12 5 -1 13 4 16 12 7 19 6
19 -24 -2z"/>
<path d="M5084 2993 c4 -7 3 -13 -2 -13 -6 0 -13 -8 -16 -17 -6 -15 -5 -15 13
1 15 13 20 14 24 4 3 -7 6 -8 6 -2 1 6 -7 18 -16 25 -11 10 -14 10 -9 2z"/>
<path d="M4690 2985 c0 -4 7 -13 16 -19 14 -11 13 -14 -5 -36 l-21 -25 -19 22
c-17 20 -20 21 -26 6 -3 -10 -3 -14 1 -11 3 4 13 1 21 -7 19 -20 25 -19 53 5
13 11 20 20 16 20 -4 0 0 7 9 16 9 9 13 19 9 23 -4 3 -9 0 -11 -7 -4 -10 -9
-9 -24 4 -10 9 -19 14 -19 9z"/>
<path d="M4821 2981 c-9 -6 -10 -11 -2 -15 6 -4 11 -2 11 5 0 17 13 2 16 -19
2 -9 8 -18 13 -20 20 -7 11 -22 -10 -19 -12 1 -24 -5 -26 -13 -4 -13 -3 -13 6
0 5 8 13 11 17 7 4 -4 2 -13 -4 -19 -7 -7 -12 -16 -12 -20 0 -5 13 6 30 24 16
18 30 27 30 21 0 -7 6 -13 13 -13 6 1 -1 12 -18 25 -16 14 -31 29 -31 35 -1 5
-2 15 -3 20 -1 12 -11 13 -30 1z"/>
<path d="M4664 2959 c-3 -6 -2 -15 4 -21 12 -12 32 -2 31 15 0 9 -2 9 -6 0 -2
-7 -9 -13 -15 -13 -6 0 -8 7 -4 15 6 17 0 20 -10 4z"/>
<path d="M4820 2940 c0 -5 5 -10 11 -10 5 0 7 5 4 10 -3 6 -8 10 -11 10 -2 0
-4 -4 -4 -10z"/>
<path d="M5070 2940 c-9 -6 -10 -10 -3 -10 6 0 15 5 18 10 8 12 4 12 -15 0z"/>
<path d="M4972 2919 c-9 -12 -23 -27 -30 -33 -49 -43 -50 -46 -27 -70 9 -9 11
-17 5 -21 -5 -3 -10 -10 -10 -16 0 -5 8 -1 18 9 17 16 17 18 -3 35 l-20 17 24
20 c12 11 28 17 34 13 5 -3 16 2 23 12 8 10 17 16 21 12 9 -10 -27 -47 -40
-41 -17 6 -41 -12 -33 -25 4 -6 13 -11 19 -11 8 0 8 3 -2 9 -11 7 -11 10 0 17
7 4 14 3 17 -4 2 -7 15 2 29 19 20 23 23 33 14 42 -10 9 -16 8 -27 -7 -7 -11
-16 -17 -19 -14 -3 3 4 16 15 29 l20 24 19 -22 c16 -20 20 -21 25 -6 4 9 4 18
1 21 -3 3 -5 0 -5 -7 0 -8 -5 -7 -16 3 -21 21 -31 20 -52 -5z"/>
<path d="M4760 2914 c0 -8 -4 -12 -10 -9 -5 3 -10 2 -10 -4 0 -5 6 -11 13 -14
6 -2 9 -8 5 -12 -12 -12 -37 15 -31 32 3 9 -22 -13 -56 -47 -47 -47 -59 -65
-49 -71 18 -12 28 -11 28 2 0 5 -4 7 -10 4 -5 -3 -10 -1 -10 4 0 6 5 11 12 11
6 0 9 3 5 6 -3 3 8 18 25 32 29 25 31 25 44 7 8 -10 14 -14 14 -8 0 7 -4 15
-10 18 -5 3 -10 12 -10 18 1 7 10 1 20 -12 11 -13 20 -19 21 -15 0 5 4 0 8
-11 6 -14 8 -3 8 33 0 28 -1 52 -3 52 -2 0 -4 -7 -4 -16z"/>
<path d="M4937 2916 c-10 -8 -14 -16 -10 -19 5 -3 14 3 21 14 14 22 13 23 -11
5z"/>
<path d="M4621 2893 c12 -15 12 -16 -4 -10 -12 5 -28 0 -44 -13 -14 -11 -22
-20 -18 -20 4 0 2 -6 -4 -14 -8 -10 -9 -16 -1 -21 6 -3 8 -10 6 -13 -2 -4 4
-18 13 -31 13 -17 23 -22 40 -16 21 6 21 8 -12 33 -34 28 -39 50 -17 77 21 25
31 16 14 -11 -30 -44 -2 -50 40 -8 27 27 34 39 25 45 -7 4 -17 5 -21 3 -4 -3
-8 0 -8 5 0 6 -5 11 -11 11 -8 0 -7 -6 2 -17z m1 -44 c-18 -17 -32 -26 -32
-20 0 15 51 63 58 56 3 -3 -9 -19 -26 -36z m-29 -69 c11 -14 13 -20 4 -20 -7
0 -18 9 -25 20 -7 11 -9 20 -4 20 4 0 15 -9 25 -20z"/>
<path d="M4784 2898 c3 -15 26 -23 26 -8 0 6 -4 9 -9 6 -5 -4 -12 -1 -14 4 -3
6 -4 5 -3 -2z"/>
<path d="M4860 2875 c-18 -21 18 -27 39 -6 18 18 18 19 -5 19 -13 0 -28 -6
-34 -13z m30 1 c0 -3 -4 -8 -10 -11 -5 -3 -10 -1 -10 4 0 6 5 11 10 11 6 0 10
-2 10 -4z"/>
<path d="M4780 2862 c0 -4 9 -8 20 -9 11 -1 20 2 20 5 0 4 -9 8 -20 9 -11 1
-20 -2 -20 -5z"/>
<path d="M4706 2825 c9 -14 12 -25 8 -25 -5 0 -1 -5 9 -11 10 -6 21 -8 24 -5
4 3 1 6 -6 6 -7 0 -9 5 -6 10 3 6 1 10 -6 10 -7 0 -10 3 -6 6 3 4 0 13 -8 20
-22 22 -27 16 -9 -11z"/>
<path d="M4822 2843 c-8 -3 -5 -10 10 -22 l22 -18 -32 -34 c-18 -19 -32 -38
-32 -42 0 -4 11 4 25 19 14 15 28 25 31 22 3 -3 -5 -15 -17 -27 -18 -16 -20
-24 -11 -33 9 -9 18 -6 37 12 23 21 24 25 10 40 -9 10 -13 24 -10 32 4 9 -1
23 -10 32 -9 9 -12 16 -6 16 6 0 21 -10 32 -21 17 -17 19 -23 8 -30 -12 -7
-11 -11 4 -26 10 -11 17 -13 17 -5 0 7 -5 12 -11 12 -8 0 -8 4 0 14 12 14 4
49 -9 41 -4 -3 -10 2 -14 10 -5 15 -20 18 -44 8z m29 -116 c-11 -12 -23 -18
-27 -15 -8 9 29 46 40 40 4 -2 -1 -14 -13 -25z"/>
<path d="M4740 2836 c0 -5 11 -24 25 -42 23 -31 24 -34 8 -44 -10 -6 -12 -10
-4 -8 8 2 25 18 38 35 19 25 21 32 9 36 -9 4 -13 1 -10 -6 2 -7 -4 -13 -16
-14 -11 -1 -20 2 -20 8 0 5 4 9 9 9 5 0 12 8 15 17 6 15 5 15 -13 -1 -18 -17
-20 -17 -30 1 -6 10 -11 14 -11 9z"/>
<path d="M4517 2817 c-3 -8 3 -24 14 -35 24 -27 24 -35 0 -27 -10 3 -24 -1
-31 -10 -7 -9 -8 -15 -2 -15 6 0 12 6 15 13 2 6 7 9 11 5 4 -3 1 -19 -7 -35
-11 -20 -12 -34 -6 -46 11 -19 29 -23 29 -6 0 5 -4 8 -9 5 -19 -12 -19 23 0
53 20 32 39 34 39 3 0 -13 2 -14 9 -4 5 9 -1 24 -20 45 -15 17 -26 33 -24 37
2 3 0 12 -4 19 -7 10 -9 10 -14 -2z"/>
<path d="M4665 2819 c-4 -6 -4 -13 -1 -16 3 -4 6 -1 6 6 0 7 5 9 10 6 6 -4 8
-11 5 -16 -4 -5 -1 -9 4 -9 13 0 13 3 5 24 -7 18 -20 21 -29 5z"/>
<path d="M4490 2767 c-12 -21 -12 -21 6 -7 10 8 20 15 22 16 2 1 -1 4 -5 7 -5
3 -15 -4 -23 -16z"/>
<path d="M4660 2780 c0 -5 5 -10 11 -10 5 0 7 5 4 10 -3 6 -8 10 -11 10 -2 0
-4 -4 -4 -10z"/>
<path d="M4700 2768 c8 -9 18 -14 23 -11 4 2 7 -1 7 -6 0 -6 5 -11 11 -11 5 0
8 4 4 9 -3 5 3 12 12 14 11 3 9 5 -7 5 -14 -1 -34 3 -45 8 -17 7 -18 6 -5 -8z"/>
<path d="M4631 2753 c-7 -8 -11 -16 -8 -19 2 -2 10 2 17 11 17 20 9 27 -9 8z"/>
<path d="M4655 2740 c-17 -18 -17 -20 -2 -14 9 3 17 10 17 15 0 5 4 9 9 9 6 0
9 -9 8 -20 -1 -12 -7 -18 -14 -16 -7 3 -10 -1 -6 -9 4 -13 8 -13 26 0 31 22
46 18 19 -5 -13 -11 -21 -24 -17 -30 8 -13 35 -13 35 0 0 5 -8 7 -17 3 -10 -3
-2 9 17 28 19 18 27 30 18 26 -10 -3 -27 2 -41 14 -31 23 -30 23 -52 -1z"/>
<path d="M4596 2723 c-4 -10 2 -25 16 -40 l23 -25 -33 -30 c-19 -16 -32 -31
-29 -34 2 -2 21 12 41 33 20 21 36 33 36 27 0 -6 -14 -25 -31 -42 -18 -18 -25
-30 -16 -26 9 3 23 16 31 30 9 13 22 21 30 18 39 -15 9 63 -31 80 -19 8 -16 2
18 -33 42 -45 29 -51 -15 -7 -22 22 -34 41 -30 51 3 8 4 15 1 15 -3 0 -8 -7
-11 -17z"/>
<path d="M4545 2720 c-3 -5 -1 -10 4 -10 6 0 11 5 11 10 0 6 -2 10 -4 10 -3 0
-8 -4 -11 -10z"/>
<path d="M4756 2709 c-11 -11 -16 -22 -13 -26 4 -3 7 -1 7 6 0 7 4 10 9 7 5
-3 12 1 15 10 9 24 4 24 -18 3z"/>
<path d="M4789 2704 c-7 -45 -5 -52 9 -46 11 4 12 7 4 10 -23 7 -12 23 11 16
12 -3 20 -5 17 -2 -28 23 -40 29 -41 22z"/>
<path d="M4530 2689 c0 -5 5 -7 10 -4 6 3 10 8 10 11 0 2 -4 4 -10 4 -5 0 -10
-5 -10 -11z"/>
<path d="M4570 2690 c13 -9 7 -14 -12 -11 -5 0 -8 -3 -8 -9 0 -12 10 -13 29
-1 15 10 7 31 -12 31 -7 0 -6 -4 3 -10z"/>
<path d="M4760 2669 c0 -5 -4 -8 -9 -5 -13 8 -24 -25 -12 -37 14 -14 29 0 29
28 0 14 -2 25 -4 25 -2 0 -4 -5 -4 -11z m0 -29 c0 -5 -4 -10 -10 -10 -5 0 -10
5 -10 10 0 6 5 10 10 10 6 0 10 -4 10 -10z"/>
<path d="M4583 2650 c-15 -14 -23 -16 -26 -7 -4 9 -6 9 -6 0 -2 -22 16 -23 39
-3 13 11 21 22 18 25 -2 3 -14 -4 -25 -15z"/>
<path d="M4709 2633 c9 -18 8 -24 -5 -31 -15 -8 -15 -10 1 -16 10 -3 20 -4 23
-1 3 3 0 5 -7 5 -7 0 -10 4 -6 10 3 5 13 6 23 3 15 -5 15 -4 2 8 -8 8 -21 21
-29 29 -12 13 -12 12 -2 -7z"/>
<path d="M4685 2620 c-3 -5 -1 -10 4 -10 6 0 11 5 11 10 0 6 -2 10 -4 10 -3 0
-8 -4 -11 -10z"/>
<path d="M4633 2595 c-12 -14 -18 -25 -14 -25 4 0 17 11 29 25 12 14 19 25 14
25 -4 0 -17 -12 -29 -25z"/>
<path d="M4655 2580 c-16 -17 -16 -20 -3 -15 9 4 19 13 22 21 7 19 2 18 -19
-6z"/>
<path d="M3850 4662 c0 -11 27 -26 49 -26 8 -1 16 -7 19 -14 2 -8 -2 -10 -15
-5 -17 7 -17 6 0 -11 24 -24 22 -43 -3 -21 -16 14 -22 15 -35 5 -13 -11 -13
-14 0 -27 20 -20 19 -34 -2 -27 -13 4 -14 3 -5 -3 7 -5 10 -18 7 -29 -5 -14
-3 -13 7 4 14 23 31 21 22 -3 -3 -7 -1 -16 5 -20 6 -3 9 0 5 8 -6 17 26 18 39
2 5 -6 7 -3 4 7 -3 9 2 22 10 30 14 11 16 11 11 -3 -3 -9 -3 -22 2 -28 5 -9 8
-4 8 13 0 36 -15 42 -37 15 -10 -13 -23 -19 -29 -15 -16 9 -45 66 -38 73 5 6
43 -28 38 -34 -2 -2 -1 -9 1 -16 8 -17 28 14 22 32 -3 8 3 24 13 35 20 22 26
56 9 56 -5 0 -7 -7 -4 -15 3 -7 -3 -24 -13 -37 -21 -25 -26 -18 -9 14 8 15 8
19 0 14 -6 -4 -11 -2 -11 4 0 7 -6 10 -14 7 -7 -3 -23 1 -35 9 -11 8 -21 11
-21 6z m80 -102 c0 -5 -5 -10 -11 -10 -5 0 -7 5 -4 10 3 6 8 10 11 10 2 0 4
-4 4 -10z"/>
<path d="M3925 4660 c3 -5 8 -10 11 -10 2 0 4 5 4 10 0 6 -5 10 -11 10 -5 0
-7 -4 -4 -10z"/>
<path d="M4106 4655 c-8 -22 -8 -25 4 -25 6 0 9 3 9 8 -3 20 2 25 12 12 9 -12
10 -12 7 -1 -6 21 -25 24 -32 6z"/>
<path d="M4229 4658 c-1 -7 -1 -17 0 -22 1 -5 -5 -6 -13 -3 -10 4 -13 1 -9 -9
7 -18 -4 -18 -23 1 -18 18 -34 19 -34 3 0 -6 3 -8 7 -5 3 4 15 0 25 -10 17
-15 19 -15 36 0 10 10 22 14 25 10 9 -9 9 -25 0 -20 -5 3 -15 -2 -23 -11 -13
-14 -12 -15 5 -8 11 5 31 8 45 8 23 -1 23 0 5 8 -11 5 -16 9 -11 9 4 1 -2 10
-15 21 -13 10 -19 19 -13 20 5 0 15 -5 22 -12 6 -6 14 -9 17 -6 3 3 -6 13 -20
22 -18 12 -25 13 -26 4z"/>
<path d="M5065 4654 c-18 -14 -18 -14 1 -28 10 -8 21 -12 24 -10 2 3 -2 9 -10
14 -8 5 -11 12 -7 16 4 4 15 0 25 -10 16 -16 15 -19 -16 -47 -18 -16 -37 -27
-42 -24 -11 7 -14 -8 -4 -18 7 -6 21 4 60 43 l25 25 20 -24 c11 -13 17 -27 13
-30 -3 -3 -12 2 -19 12 -13 18 -14 18 -33 -1 -20 -20 -19 -20 18 -18 51 1 58
11 30 41 -22 24 -23 27 -7 42 9 9 20 13 24 9 4 -4 1 -11 -7 -16 -8 -5 -12 -11
-10 -14 3 -2 14 2 24 10 19 14 19 14 1 28 -16 12 -21 11 -37 -8 l-18 -21 -18
21 c-16 19 -21 20 -37 8z"/>
<path d="M1977 4649 c-17 -10 -17 -12 -2 -29 15 -17 15 -19 -2 -29 -10 -6 -13
-11 -7 -11 6 0 17 6 23 14 9 11 9 17 -2 28 -12 11 -12 14 2 25 20 15 13 16
-12 2z"/>
<path d="M4175 4650 c3 -5 8 -10 11 -10 2 0 4 5 4 10 0 6 -5 10 -11 10 -5 0
-7 -4 -4 -10z"/>
<path d="M1544 4641 c4 -5 1 -12 -4 -14 -6 -3 -5 -4 2 -3 15 3 23 26 8 26 -6
0 -9 -4 -6 -9z"/>
<path d="M4384 4636 c4 -13 -1 -27 -15 -42 -14 -15 -19 -29 -15 -42 6 -19 9
-18 41 14 19 19 40 34 46 34 7 0 -1 -12 -18 -27 -16 -16 -36 -39 -43 -53 l-13
-25 -10 23 c-6 12 -14 22 -19 22 -5 0 -1 -12 8 -26 l17 -25 22 23 c12 13 21
25 19 27 -2 2 12 16 32 32 33 26 34 28 13 34 -16 5 -26 2 -36 -11 -7 -10 -13
-14 -13 -10 0 5 -9 -2 -20 -15 -11 -14 -19 -18 -20 -11 0 15 44 62 59 62 6 0
8 7 5 15 -8 21 -25 19 -18 -2 5 -15 3 -15 -12 2 -16 19 -16 19 -10 1z"/>
<path d="M4436 4635 c4 -8 8 -15 10 -15 2 0 4 7 4 15 0 8 -4 15 -10 15 -5 0
-7 -7 -4 -15z"/>
<path d="M1562 4620 c-7 -11 -17 -19 -23 -17 -6 1 -13 -4 -14 -11 -2 -7 -1 -8
2 -2 2 5 8 8 13 5 8 -5 46 33 39 40 -3 2 -10 -5 -17 -15z"/>
<path d="M1927 4629 c7 -7 15 -10 18 -7 3 3 -2 9 -12 12 -14 6 -15 5 -6 -5z"/>
<path d="M3985 4619 c-16 -17 -17 -21 -5 -29 19 -12 28 -5 28 25 0 14 -1 25
-2 24 0 0 -10 -9 -21 -20z m15 -19 c0 -5 -2 -10 -4 -10 -3 0 -8 5 -11 10 -3 6
-1 10 4 10 6 0 11 -4 11 -10z"/>
<path d="M4495 4630 c-3 -5 -1 -10 4 -10 6 0 11 5 11 10 0 6 -2 10 -4 10 -3 0
-8 -4 -11 -10z"/>
<path d="M1590 4626 c0 -2 7 -6 15 -10 8 -3 15 -1 15 4 0 6 -7 10 -15 10 -8 0
-15 -2 -15 -4z"/>
<path d="M3850 4607 c-12 -21 -12 -21 6 -7 10 8 20 15 22 16 2 1 -1 4 -5 7 -5
3 -15 -4 -23 -16z"/>
<path d="M4020 4620 c0 -5 5 -10 11 -10 5 0 7 5 4 10 -3 6 -8 10 -11 10 -2 0
-4 -4 -4 -10z"/>
<path d="M4125 4620 c-3 -5 -1 -10 4 -10 6 0 11 5 11 10 0 6 -2 10 -4 10 -3 0
-8 -4 -11 -10z"/>
<path d="M4460 4621 c0 -9 30 -24 36 -18 2 1 -6 8 -16 15 -11 7 -20 8 -20 3z"/>
<path d="M4515 4609 c-5 -16 -2 -26 11 -36 11 -8 18 -22 17 -31 -1 -10 0 -11
3 -4 3 6 10 10 15 6 5 -3 9 -1 9 4 0 5 -11 15 -25 22 -14 7 -25 20 -25 29 0
10 3 12 8 5 11 -17 52 -36 52 -24 0 5 -6 10 -14 10 -8 0 -21 9 -29 21 l-15 21
-7 -23z"/>
<path d="M4755 4609 c-5 -16 -2 -26 11 -36 10 -7 14 -13 9 -13 -10 0 27 -29
38 -30 4 0 7 5 7 10 0 6 -3 9 -7 8 -11 -4 -53 39 -53 53 0 6 7 3 16 -5 24 -24
30 -19 8 7 -10 12 -20 23 -20 25 -1 2 -5 -7 -9 -19z"/>
<path d="M1670 4609 c0 -5 5 -7 10 -4 15 9 12 -4 -5 -22 -8 -8 -13 -19 -10
-24 4 -5 1 -9 -6 -9 -7 0 -10 -3 -6 -6 3 -3 14 -1 24 5 10 6 12 11 5 11 -8 0
-6 8 8 22 15 16 17 24 8 30 -18 11 -28 10 -28 -3z"/>
<path d="M1810 4609 c0 -5 5 -7 10 -4 6 3 10 8 10 11 0 2 -4 4 -10 4 -5 0 -10
-5 -10 -11z"/>
<path d="M4066 4603 c12 -12 16 -12 28 0 12 12 10 14 -14 14 -24 0 -26 -2 -14
-14z"/>
<path d="M5046 4604 c16 -13 16 -15 2 -10 -10 3 -18 1 -18 -4 0 -14 27 -13 36
1 3 6 0 15 -7 20 -24 15 -34 10 -13 -7z"/>
<path d="M5181 4611 c-7 -5 -10 -14 -7 -20 9 -14 36 -15 36 -1 0 5 -8 7 -17 4
-15 -5 -15 -3 1 10 21 17 11 22 -13 7z"/>
<path d="M4150 4600 c0 -5 5 -10 10 -10 6 0 10 5 10 10 0 6 -4 10 -10 10 -5 0
-10 -4 -10 -10z"/>
<path d="M4628 4589 c-13 -14 -14 -20 -4 -28 7 -6 16 -8 19 -4 4 3 7 1 7 -5 0
-23 -19 -21 -39 4 -12 15 -21 22 -21 17 0 -5 5 -14 12 -21 6 -6 8 -15 4 -19
-4 -4 -12 -1 -17 7 -9 12 -10 11 -5 -4 5 -13 2 -17 -8 -13 -8 3 -22 -4 -33
-16 -16 -19 -16 -20 0 -8 9 7 17 11 17 7 0 -4 14 1 31 9 32 17 54 12 29 -6
-12 -9 -12 -10 3 -5 9 3 17 1 17 -5 0 -6 12 3 26 20 29 35 24 53 -12 47 -17
-3 -24 -1 -21 7 2 7 13 11 23 9 11 -2 15 1 9 5 -5 5 -12 11 -15 14 -3 3 -13
-2 -22 -12z m42 -48 c-10 -20 -30 -37 -30 -26 0 11 25 45 33 45 4 0 3 -9 -3
-19z"/>
<path d="M4710 4600 c0 -5 7 -7 15 -4 8 4 15 8 15 10 0 2 -7 4 -15 4 -8 0 -15
-4 -15 -10z"/>
<path d="M4944 4589 c8 -12 12 -29 9 -38 -3 -12 -1 -11 11 3 9 11 16 25 16 30
0 6 -4 5 -9 -3 -7 -11 -10 -9 -16 8 -3 11 -11 21 -16 21 -6 0 -3 -10 5 -21z"/>
<path d="M4995 4588 c2 -10 -6 -29 -17 -43 -15 -19 -16 -24 -4 -19 9 3 16 10
16 15 0 5 4 9 10 9 5 0 9 -10 7 -21 -1 -12 4 -23 11 -25 7 -1 8 0 2 3 -17 8
-11 26 7 19 13 -5 11 0 -6 18 -14 15 -19 26 -13 26 7 0 12 5 12 11 0 5 -4 8
-9 4 -5 -3 -11 0 -14 7 -2 7 -3 5 -2 -4z"/>
<path d="M5240 4594 c0 -8 -4 -12 -10 -9 -5 3 -10 1 -10 -4 0 -6 5 -11 12 -11
6 0 1 -11 -13 -26 -17 -18 -19 -23 -6 -18 18 7 24 -11 7 -19 -6 -3 -5 -4 2 -3
7 2 12 13 11 25 -2 11 2 21 7 21 6 0 10 -4 10 -9 0 -5 7 -12 16 -15 12 -5 11
0 -4 19 -12 15 -18 34 -15 45 3 11 3 20 -1 20 -3 0 -6 -7 -6 -16z"/>
<path d="M5285 4589 c-6 -17 -9 -19 -16 -8 -5 8 -9 9 -9 3 0 -5 7 -19 16 -30
12 -14 14 -15 11 -3 -3 9 1 26 9 38 8 11 11 21 5 21 -5 0 -13 -10 -16 -21z"/>
<path d="M4015 4580 c-17 -19 -20 -19 -42 -5 -12 9 -23 12 -23 8 0 -5 9 -14
20 -21 16 -10 24 -10 40 0 11 7 20 16 20 20 0 5 5 8 11 8 6 0 8 -8 5 -18 -4
-12 1 -26 14 -37 19 -18 21 -18 40 0 13 11 18 25 14 37 -7 22 2 23 22 3 18
-18 34 -19 34 -3 0 6 -3 8 -7 5 -3 -4 -15 0 -25 10 -17 15 -19 15 -38 -2 -19
-17 -21 -17 -38 -2 -23 21 -25 21 -47 -3z m65 -25 c17 -21 5 -31 -15 -12 -8 9
-15 18 -15 21 0 11 18 6 30 -9z m30 5 c0 -5 -4 -10 -10 -10 -5 0 -10 5 -10 10
0 6 5 10 10 10 6 0 10 -4 10 -10z"/>
<path d="M4850 4590 c0 -5 5 -10 11 -10 5 0 7 5 4 10 -3 6 -8 10 -11 10 -2 0
-4 -4 -4 -10z"/>
<path d="M5375 4590 c-3 -5 -1 -10 4 -10 6 0 11 5 11 10 0 6 -2 10 -4 10 -3 0
-8 -4 -11 -10z"/>
<path d="M1863 4570 c-15 -13 -23 -16 -26 -7 -2 7 -4 0 -4 -15 l0 -26 22 24
c22 24 42 33 30 14 -3 -5 -1 -10 4 -10 13 0 14 10 3 28 -6 9 -13 7 -29 -8z"/>
<path d="M4180 4579 c0 -5 5 -7 10 -4 6 3 10 8 10 11 0 2 -4 4 -10 4 -5 0 -10
-5 -10 -11z"/>
<path d="M4475 4578 c-34 -20 -50 -40 -52 -67 -2 -18 0 -22 6 -12 5 8 6 21 3
30 -5 14 -3 14 11 3 8 -8 15 -19 13 -25 -1 -7 -1 -8 2 -4 2 4 10 3 18 -4 8 -6
14 -8 14 -4 0 4 -10 15 -22 25 -20 15 -21 20 -8 35 7 9 21 14 31 12 12 -3 16
0 12 9 -3 8 -6 14 -7 14 0 0 -10 -6 -21 -12z"/>
<path d="M4685 4580 c3 -5 8 -10 11 -10 2 0 4 5 4 10 0 6 -5 10 -11 10 -5 0
-7 -4 -4 -10z"/>
<path d="M4723 4583 c-7 -3 -13 -9 -13 -14 0 -4 8 -5 18 -2 15 6 15 5 3 -10
-8 -10 -16 -15 -19 -13 -2 3 -14 -6 -24 -20 -11 -14 -18 -28 -14 -31 3 -4 6
-1 6 5 0 6 14 20 30 32 l30 22 33 -28 c17 -15 31 -31 29 -36 -1 -5 2 -7 8 -3
16 10 12 21 -17 36 -14 8 -33 26 -42 40 -9 14 -22 24 -28 22z"/>
<path d="M4907 4583 c-10 -10 -8 -33 3 -33 5 0 7 8 4 18 -5 14 -3 14 10 -2 17
-21 20 -18 10 8 -7 17 -16 20 -27 9z"/>
<path d="M5306 4575 c-10 -27 -7 -30 10 -9 13 16 15 16 10 2 -3 -10 -1 -18 5
-18 14 0 7 32 -7 37 -6 2 -14 -3 -18 -12z"/>
<path d="M4253 4560 c1 -11 5 -20 9 -20 3 0 6 9 5 20 -1 11 -5 20 -9 20 -3 0
-6 -9 -5 -20z"/>
<path d="M4866 4564 c-20 -19 -20 -20 -2 -27 11 -4 13 -1 9 10 -4 10 -2 14 4
10 5 -3 10 0 10 8 0 19 -2 19 -21 -1z"/>
<path d="M5354 4567 c1 -6 5 -18 10 -25 4 -7 5 -16 1 -20 -4 -4 -10 -1 -12 6
-3 6 -9 12 -14 12 -6 0 -8 -4 -5 -9 7 -10 -24 -25 -33 -16 -3 3 1 11 9 16 13
9 13 10 0 6 -23 -6 -18 -33 5 -29 11 2 31 3 45 3 14 0 34 -1 45 -3 23 -4 28
23 5 29 -13 4 -13 3 0 -6 20 -14 6 -25 -17 -12 -10 6 -14 11 -9 11 6 0 1 7
-10 16 -18 15 -18 15 4 9 14 -4 22 -2 22 6 0 7 -3 9 -6 6 -4 -3 -15 -2 -24 3
-13 7 -18 6 -16 -3z"/>
<path d="M5410 4565 c0 -8 2 -15 4 -15 2 0 6 7 10 15 3 8 1 15 -4 15 -6 0 -10
-7 -10 -15z"/>
<path d="M1756 4563 c-3 -3 -6 -11 -6 -16 0 -6 3 -8 6 -4 4 3 13 -1 21 -9 18
-18 9 -32 -10 -16 -8 7 -18 7 -27 2 -8 -5 -17 -7 -21 -4 -4 2 -13 -4 -20 -14
-12 -15 -12 -16 1 -6 8 6 32 10 53 9 20 -2 40 1 43 6 7 11 -31 61 -40 52z"/>
<path d="M4200 4559 c0 -5 5 -7 10 -4 6 3 10 8 10 11 0 2 -4 4 -10 4 -5 0 -10
-5 -10 -11z"/>
<path d="M4221 4548 c-13 -21 -14 -21 -27 -3 -8 10 -14 14 -14 8 0 -7 5 -15
11 -19 6 -3 9 -15 6 -25 -3 -11 -1 -17 4 -13 5 3 9 12 9 20 0 8 4 14 9 14 5 0
12 7 15 16 10 25 2 26 -13 2z"/>
<path d="M4830 4555 c0 -8 2 -15 4 -15 2 0 6 7 10 15 3 8 1 15 -4 15 -6 0 -10
-7 -10 -15z"/>
<path d="M5187 4553 c3 -7 9 -10 14 -7 14 8 11 21 -5 21 -8 0 -12 -6 -9 -14z"/>
<path d="M4015 4550 c-3 -5 -1 -10 4 -10 6 0 11 5 11 10 0 6 -2 10 -4 10 -3 0
-8 -4 -11 -10z"/>
<path d="M4130 4550 c0 -5 5 -10 11 -10 5 0 7 5 4 10 -3 6 -8 10 -11 10 -2 0
-4 -4 -4 -10z"/>
<path d="M4474 4549 c-3 -6 -1 -16 4 -21 8 -8 11 -5 9 11 -1 24 -3 25 -13 10z"/>
<path d="M4513 4553 c-7 -2 -13 -9 -13 -14 0 -6 4 -8 9 -4 5 3 12 -3 14 -12 3
-10 4 -6 4 10 -1 15 -2 27 -2 26 0 0 -6 -3 -12 -6z"/>
<path d="M1725 4540 c-3 -5 -1 -10 4 -10 6 0 11 5 11 10 0 6 -2 10 -4 10 -3 0
-8 -4 -11 -10z"/>
<path d="M1980 4540 c0 -5 5 -10 11 -10 5 0 7 5 4 10 -3 6 -8 10 -11 10 -2 0
-4 -4 -4 -10z"/>
<path d="M5056 4534 c-7 -19 -4 -25 16 -28 7 -1 20 -6 28 -11 13 -8 13 -6 2 8
-8 9 -17 16 -20 15 -19 -2 -25 3 -13 11 8 5 9 11 3 15 -5 3 -13 -1 -16 -10z"/>
<path d="M5166 4541 c-4 -6 -2 -11 4 -11 6 0 8 -5 5 -10 -4 -6 -10 -8 -15 -5
-4 3 -14 -3 -21 -12 -12 -15 -12 -16 1 -8 8 5 21 10 28 11 21 4 25 11 14 30
-6 11 -11 13 -16 5z"/>
<path d="M3993 4519 c-2 -25 12 -32 27 -14 18 21 35 19 19 -2 -13 -16 -12 -17
4 -4 13 11 17 11 17 1 0 -8 3 -10 6 -7 10 9 -17 38 -30 34 -6 -3 -18 -1 -26 4
-12 5 -16 2 -17 -12z m27 -3 c0 -3 -4 -8 -10 -11 -5 -3 -10 -1 -10 4 0 6 5 11
10 11 6 0 10 -2 10 -4z"/>
<path d="M4887 4527 c-3 -8 0 -14 6 -15 7 0 21 -2 32 -4 23 -4 28 23 5 29 -13
4 -13 3 0 -6 8 -5 12 -13 9 -16 -9 -9 -40 6 -33 16 3 5 1 9 -4 9 -6 0 -12 -6
-15 -13z"/>
<path d="M5103 4523 c16 -16 18 -16 34 0 10 9 12 17 6 17 -6 0 -14 -6 -17 -12
-5 -10 -7 -10 -12 0 -3 6 -11 12 -17 12 -6 0 -4 -8 6 -17z"/>
<path d="M4098 4513 c-6 -7 -8 -16 -4 -20 3 -3 6 -1 6 7 0 10 4 10 18 -1 15
-13 16 -12 3 4 -16 21 1 23 19 2 7 -8 17 -15 23 -15 6 0 2 7 -9 16 -18 15 -18
15 9 9 18 -4 26 -2 22 4 -9 15 -73 10 -87 -6z"/>
<path d="M4730 4519 c0 -5 -4 -8 -9 -5 -5 3 -14 -1 -21 -9 -9 -10 -9 -15 -1
-15 6 0 11 5 11 11 0 8 6 7 18 -2 9 -7 14 -9 10 -5 -4 5 -3 15 3 23 9 9 8 13
0 13 -6 0 -11 -5 -11 -11z"/>
<path d="M1810 4511 c0 -9 30 -24 36 -18 2 1 -6 8 -16 15 -11 7 -20 8 -20 3z"/>
<path d="M4396 4503 c-6 -14 -5 -15 5 -6 7 7 10 15 7 18 -3 3 -9 -2 -12 -12z"/>
<path d="M4500 4511 c0 -6 4 -13 10 -16 6 -3 7 1 4 9 -7 18 -14 21 -14 7z"/>
<path d="M4966 4504 c-11 -8 -16 -14 -10 -14 13 0 39 18 34 24 -3 2 -14 -2
-24 -10z"/>
<path d="M5250 4510 c0 -5 5 -10 11 -10 5 0 7 5 4 10 -3 6 -8 10 -11 10 -2 0
-4 -4 -4 -10z"/>
</g>
</svg>
